<svg width="120" height="120" viewBox="0 0 120 120" fill="none" xmlns="http://www.w3.org/2000/svg">
<path d="M75 113.75H45C17.85 113.75 6.25 102.15 6.25 75V45C6.25 17.85 17.85 6.25 45 6.25H70C72.05 6.25 73.75 7.95 73.75 10C73.75 12.05 72.05 13.75 70 13.75H45C21.95 13.75 13.75 21.95 13.75 45V75C13.75 98.05 21.95 106.25 45 106.25H75C98.05 106.25 106.25 98.05 106.25 75V50C106.25 47.95 107.95 46.25 110 46.25C112.05 46.25 113.75 47.95 113.75 50V75C113.75 102.15 102.15 113.75 75 113.75Z" fill="#282828" fill-opacity="0.3"/>
<path d="M110 53.75H90C72.9 53.75 66.25 47.0999 66.25 29.9999V9.99994C66.25 8.49994 67.15 7.09994 68.55 6.54994C69.95 5.94994 71.55 6.29994 72.65 7.34994L112.65 47.3499C113.7 48.3999 114.05 50.05 113.45 51.45C112.85 52.85 111.5 53.75 110 53.75ZM73.75 19.0499V29.9999C73.75 42.8999 77.1 46.2499 90 46.2499H100.95L73.75 19.0499Z" fill="#282828" fill-opacity="0.3"/>
<path d="M65 68.75H35C32.95 68.75 31.25 67.05 31.25 65C31.25 62.95 32.95 61.25 35 61.25H65C67.05 61.25 68.75 62.95 68.75 65C68.75 67.05 67.05 68.75 65 68.75Z" fill="#282828" fill-opacity="0.3"/>
<path d="M55 88.75H35C32.95 88.75 31.25 87.05 31.25 85C31.25 82.95 32.95 81.25 35 81.25H55C57.05 81.25 58.75 82.95 58.75 85C58.75 87.05 57.05 88.75 55 88.75Z" fill="#282828" fill-opacity="0.3"/>
</svg>
