<svg width="558" height="412" viewBox="0 0 558 412" fill="none" xmlns="http://www.w3.org/2000/svg">
<g clip-path="url(#clip0_1182_2638)">
<rect width="558" height="412" fill="white"/>
<rect width="558" height="412" fill="url(#paint0_linear_1182_2638)"/>
<g filter="url(#filter0_d_1182_2638)">
<rect width="387.188" height="336" transform="translate(85 38)" fill="white"/>
<path d="M116.763 93.875C116.57 93.875 116.421 93.8225 116.316 93.7175C116.211 93.595 116.159 93.4462 116.159 93.2712V76.13C116.159 75.9375 116.211 75.7887 116.316 75.6837C116.421 75.5612 116.57 75.5 116.763 75.5H127.473C127.665 75.5 127.814 75.5612 127.919 75.6837C128.024 75.7887 128.076 75.9375 128.076 76.13V77.18C128.076 77.3725 128.024 77.5212 127.919 77.6262C127.814 77.7312 127.665 77.7837 127.473 77.7837H118.705V83.9H126.948C127.14 83.9 127.289 83.9612 127.394 84.0837C127.499 84.1887 127.551 84.3375 127.551 84.53V85.58C127.551 85.755 127.499 85.9037 127.394 86.0262C127.289 86.1312 127.14 86.1837 126.948 86.1837H118.705V93.2712C118.705 93.4462 118.644 93.595 118.521 93.7175C118.416 93.8225 118.268 93.875 118.075 93.875H116.763ZM131.777 93.875C131.602 93.875 131.453 93.8225 131.331 93.7175C131.226 93.595 131.173 93.4462 131.173 93.2712V75.8412C131.173 75.6662 131.226 75.5262 131.331 75.4212C131.453 75.2987 131.602 75.2375 131.777 75.2375H133.011C133.203 75.2375 133.352 75.2987 133.457 75.4212C133.562 75.5262 133.615 75.6662 133.615 75.8412V93.2712C133.615 93.4462 133.562 93.595 133.457 93.7175C133.352 93.8225 133.203 93.875 133.011 93.875H131.777ZM142.964 94.1375C141.161 94.1375 139.726 93.5862 138.659 92.4837C137.591 91.3637 137.005 89.8412 136.9 87.9162C136.883 87.6887 136.874 87.4 136.874 87.05C136.874 86.6825 136.883 86.385 136.9 86.1575C136.97 84.915 137.259 83.83 137.766 82.9025C138.274 81.9575 138.965 81.2312 139.84 80.7237C140.733 80.2162 141.774 79.9625 142.964 79.9625C144.294 79.9625 145.405 80.2425 146.298 80.8025C147.208 81.3625 147.899 82.1587 148.371 83.1912C148.844 84.2237 149.08 85.4312 149.08 86.8137V87.26C149.08 87.4525 149.019 87.6012 148.896 87.7062C148.791 87.8112 148.651 87.8637 148.476 87.8637H139.394C139.394 87.8812 139.394 87.9162 139.394 87.9687C139.394 88.0212 139.394 88.065 139.394 88.1C139.429 88.8175 139.586 89.4912 139.866 90.1212C140.146 90.7337 140.549 91.2325 141.074 91.6175C141.599 92.0025 142.229 92.195 142.964 92.195C143.594 92.195 144.119 92.0987 144.539 91.9062C144.959 91.7137 145.3 91.5037 145.563 91.2762C145.825 91.0312 146 90.8475 146.088 90.725C146.245 90.4975 146.368 90.3662 146.455 90.3312C146.543 90.2787 146.683 90.2525 146.875 90.2525H148.135C148.31 90.2525 148.45 90.305 148.555 90.41C148.678 90.4975 148.73 90.6287 148.713 90.8037C148.695 91.0662 148.555 91.39 148.293 91.775C148.03 92.1425 147.654 92.51 147.164 92.8775C146.674 93.245 146.079 93.5512 145.379 93.7962C144.679 94.0238 143.874 94.1375 142.964 94.1375ZM139.394 86.0525H146.586V85.9737C146.586 85.1862 146.438 84.4862 146.14 83.8737C145.86 83.2612 145.449 82.78 144.906 82.43C144.364 82.0625 143.716 81.8787 142.964 81.8787C142.211 81.8787 141.564 82.0625 141.021 82.43C140.496 82.78 140.094 83.2612 139.814 83.8737C139.534 84.4862 139.394 85.1862 139.394 85.9737V86.0525ZM151.307 93.875C151.167 93.875 151.036 93.8225 150.913 93.7175C150.808 93.6125 150.756 93.4812 150.756 93.3237C150.756 93.2712 150.764 93.21 150.782 93.14C150.817 93.0525 150.869 92.9562 150.939 92.8512L155.507 86.8925L151.228 81.2487C151.158 81.1437 151.106 81.0562 151.071 80.9862C151.053 80.9162 151.044 80.8462 151.044 80.7762C151.044 80.6187 151.097 80.4875 151.202 80.3825C151.307 80.2775 151.438 80.225 151.596 80.225H152.934C153.127 80.225 153.267 80.2775 153.354 80.3825C153.459 80.47 153.547 80.5575 153.617 80.645L157.108 85.1862L160.599 80.6712C160.669 80.5837 160.748 80.4875 160.836 80.3825C160.941 80.2775 161.089 80.225 161.282 80.225H162.568C162.726 80.225 162.857 80.2775 162.962 80.3825C163.067 80.4875 163.119 80.6187 163.119 80.7762C163.119 80.8462 163.102 80.9162 163.067 80.9862C163.049 81.0562 163.006 81.1437 162.936 81.2487L158.604 86.945L163.172 92.8512C163.242 92.9562 163.286 93.0437 163.303 93.1137C163.338 93.1837 163.356 93.2537 163.356 93.3237C163.356 93.4812 163.303 93.6125 163.198 93.7175C163.093 93.8225 162.962 93.875 162.804 93.875H161.413C161.238 93.875 161.098 93.8312 160.993 93.7437C160.888 93.6562 160.801 93.5687 160.731 93.4812L157.029 88.6775L153.328 93.4812C153.258 93.5512 153.171 93.6387 153.066 93.7437C152.978 93.8312 152.838 93.875 152.646 93.875H151.307ZM166.691 93.875C166.516 93.875 166.367 93.8225 166.245 93.7175C166.14 93.595 166.087 93.4462 166.087 93.2712V80.8287C166.087 80.6537 166.14 80.5137 166.245 80.4087C166.367 80.2862 166.516 80.225 166.691 80.225H167.951C168.126 80.225 168.266 80.2862 168.371 80.4087C168.476 80.5137 168.529 80.6537 168.529 80.8287V93.2712C168.529 93.4462 168.476 93.595 168.371 93.7175C168.266 93.8225 168.126 93.875 167.951 93.875H166.691ZM166.481 77.6787C166.306 77.6787 166.157 77.6262 166.035 77.5212C165.93 77.3987 165.877 77.25 165.877 77.075V75.6575C165.877 75.4825 165.93 75.3425 166.035 75.2375C166.157 75.115 166.306 75.0537 166.481 75.0537H168.135C168.31 75.0537 168.45 75.115 168.555 75.2375C168.677 75.3425 168.739 75.4825 168.739 75.6575V77.075C168.739 77.25 168.677 77.3987 168.555 77.5212C168.45 77.6262 168.31 77.6787 168.135 77.6787H166.481ZM179.191 94.1375C178.141 94.1375 177.266 93.9538 176.566 93.5862C175.866 93.2012 175.306 92.7287 174.886 92.1687V93.2712C174.886 93.4462 174.825 93.595 174.702 93.7175C174.597 93.8225 174.457 93.875 174.282 93.875H173.075C172.9 93.875 172.751 93.8225 172.628 93.7175C172.523 93.595 172.471 93.4462 172.471 93.2712V75.8412C172.471 75.6662 172.523 75.5262 172.628 75.4212C172.751 75.2987 172.9 75.2375 173.075 75.2375H174.335C174.527 75.2375 174.676 75.2987 174.781 75.4212C174.886 75.5262 174.938 75.6662 174.938 75.8412V81.8787C175.376 81.3362 175.936 80.8812 176.618 80.5137C177.318 80.1462 178.176 79.9625 179.191 79.9625C180.171 79.9625 181.002 80.1375 181.685 80.4875C182.385 80.82 182.953 81.2837 183.391 81.8787C183.846 82.4737 184.187 83.1475 184.415 83.9C184.642 84.6525 184.765 85.44 184.782 86.2625C184.8 86.5425 184.808 86.805 184.808 87.05C184.808 87.295 184.8 87.5575 184.782 87.8375C184.765 88.6775 184.642 89.4737 184.415 90.2262C184.187 90.9787 183.846 91.6525 183.391 92.2475C182.953 92.825 182.385 93.2887 181.685 93.6387C181.002 93.9713 180.171 94.1375 179.191 94.1375ZM178.64 92.0112C179.55 92.0112 180.258 91.8187 180.766 91.4337C181.291 91.0312 181.667 90.515 181.895 89.885C182.122 89.2375 182.253 88.5462 182.288 87.8112C182.306 87.3037 182.306 86.7962 182.288 86.2887C182.253 85.5537 182.122 84.8712 181.895 84.2412C181.667 83.5937 181.291 83.0775 180.766 82.6925C180.258 82.29 179.55 82.0887 178.64 82.0887C177.817 82.0887 177.135 82.2812 176.592 82.6662C176.05 83.0512 175.638 83.5412 175.358 84.1362C175.096 84.7312 174.956 85.335 174.938 85.9475C174.921 86.2275 174.912 86.5687 174.912 86.9712C174.912 87.3562 174.921 87.6887 174.938 87.9687C174.973 88.6162 175.113 89.255 175.358 89.885C175.621 90.4975 176.015 91.005 176.54 91.4075C177.082 91.81 177.782 92.0112 178.64 92.0112ZM188.686 93.875C188.511 93.875 188.363 93.8225 188.24 93.7175C188.135 93.595 188.083 93.4462 188.083 93.2712V75.8412C188.083 75.6662 188.135 75.5262 188.24 75.4212C188.363 75.2987 188.511 75.2375 188.686 75.2375H189.92C190.113 75.2375 190.261 75.2987 190.366 75.4212C190.471 75.5262 190.524 75.6662 190.524 75.8412V93.2712C190.524 93.4462 190.471 93.595 190.366 93.7175C190.261 93.8225 190.113 93.875 189.92 93.875H188.686ZM199.873 94.1375C198.071 94.1375 196.636 93.5862 195.568 92.4837C194.501 91.3637 193.914 89.8412 193.809 87.9162C193.792 87.6887 193.783 87.4 193.783 87.05C193.783 86.6825 193.792 86.385 193.809 86.1575C193.879 84.915 194.168 83.83 194.676 82.9025C195.183 81.9575 195.874 81.2312 196.749 80.7237C197.642 80.2162 198.683 79.9625 199.873 79.9625C201.203 79.9625 202.314 80.2425 203.207 80.8025C204.117 81.3625 204.808 82.1587 205.281 83.1912C205.753 84.2237 205.989 85.4312 205.989 86.8137V87.26C205.989 87.4525 205.928 87.6012 205.806 87.7062C205.701 87.8112 205.561 87.8637 205.386 87.8637H196.303C196.303 87.8812 196.303 87.9162 196.303 87.9687C196.303 88.0212 196.303 88.065 196.303 88.1C196.338 88.8175 196.496 89.4912 196.776 90.1212C197.056 90.7337 197.458 91.2325 197.983 91.6175C198.508 92.0025 199.138 92.195 199.873 92.195C200.503 92.195 201.028 92.0987 201.448 91.9062C201.868 91.7137 202.209 91.5037 202.472 91.2762C202.734 91.0312 202.909 90.8475 202.997 90.725C203.154 90.4975 203.277 90.3662 203.364 90.3312C203.452 90.2787 203.592 90.2525 203.784 90.2525H205.044C205.219 90.2525 205.359 90.305 205.464 90.41C205.587 90.4975 205.639 90.6287 205.622 90.8037C205.604 91.0662 205.464 91.39 205.202 91.775C204.939 92.1425 204.563 92.51 204.073 92.8775C203.583 93.245 202.988 93.5512 202.288 93.7962C201.588 94.0238 200.783 94.1375 199.873 94.1375ZM196.303 86.0525H203.496V85.9737C203.496 85.1862 203.347 84.4862 203.049 83.8737C202.769 83.2612 202.358 82.78 201.816 82.43C201.273 82.0625 200.626 81.8787 199.873 81.8787C199.121 81.8787 198.473 82.0625 197.931 82.43C197.406 82.78 197.003 83.2612 196.723 83.8737C196.443 84.4862 196.303 85.1862 196.303 85.9737V86.0525ZM216.192 98.8625C216.017 98.8625 215.869 98.8013 215.746 98.6788C215.641 98.5738 215.589 98.4338 215.589 98.2588V80.8287C215.589 80.6537 215.641 80.5137 215.746 80.4087C215.869 80.2862 216.017 80.225 216.192 80.225H217.4C217.575 80.225 217.715 80.2862 217.82 80.4087C217.942 80.5137 218.004 80.6537 218.004 80.8287V81.9837C218.424 81.4062 218.984 80.925 219.684 80.54C220.384 80.155 221.259 79.9625 222.309 79.9625C223.289 79.9625 224.12 80.1287 224.802 80.4612C225.502 80.7937 226.071 81.2487 226.509 81.8262C226.964 82.4037 227.305 83.06 227.532 83.795C227.76 84.53 227.882 85.3175 227.9 86.1575C227.917 86.4375 227.926 86.735 227.926 87.05C227.926 87.365 227.917 87.6625 227.9 87.9425C227.882 88.765 227.76 89.5525 227.532 90.305C227.305 91.04 226.964 91.6962 226.509 92.2737C226.071 92.8337 225.502 93.2887 224.802 93.6387C224.12 93.9713 223.289 94.1375 222.309 94.1375C221.294 94.1375 220.436 93.9538 219.736 93.5862C219.054 93.2012 218.494 92.7287 218.056 92.1687V98.2588C218.056 98.4338 218.004 98.5738 217.899 98.6788C217.794 98.8013 217.645 98.8625 217.452 98.8625H216.192ZM221.757 92.0112C222.667 92.0112 223.376 91.8187 223.884 91.4337C224.409 91.0312 224.785 90.515 225.012 89.885C225.24 89.2375 225.371 88.5462 225.406 87.8112C225.424 87.3037 225.424 86.7962 225.406 86.2887C225.371 85.5537 225.24 84.8712 225.012 84.2412C224.785 83.5937 224.409 83.0775 223.884 82.6925C223.376 82.29 222.667 82.0887 221.757 82.0887C220.9 82.0887 220.2 82.29 219.657 82.6925C219.132 83.095 218.739 83.6112 218.476 84.2412C218.231 84.8537 218.091 85.4837 218.056 86.1312C218.039 86.4112 218.03 86.7437 218.03 87.1288C218.03 87.5137 218.039 87.855 218.056 88.1525C218.074 88.765 218.214 89.3687 218.476 89.9637C218.756 90.5587 219.167 91.0487 219.71 91.4337C220.252 91.8187 220.935 92.0112 221.757 92.0112ZM235.006 94.1375C234.131 94.1375 233.335 93.9625 232.617 93.6125C231.9 93.2625 231.322 92.79 230.885 92.195C230.447 91.6 230.228 90.9262 230.228 90.1737C230.228 88.9662 230.718 88.0037 231.698 87.2862C232.678 86.5687 233.956 86.0962 235.531 85.8687L239.442 85.3175V84.5562C239.442 83.7162 239.197 83.06 238.707 82.5875C238.235 82.115 237.456 81.8787 236.371 81.8787C235.583 81.8787 234.945 82.0362 234.455 82.3512C233.982 82.6662 233.65 83.0687 233.457 83.5587C233.352 83.8212 233.168 83.9525 232.906 83.9525H231.725C231.532 83.9525 231.383 83.9 231.278 83.795C231.191 83.6725 231.147 83.5325 231.147 83.375C231.147 83.1125 231.243 82.7887 231.436 82.4037C231.646 82.0187 231.961 81.6425 232.381 81.275C232.801 80.9075 233.335 80.6012 233.982 80.3562C234.647 80.0937 235.452 79.9625 236.397 79.9625C237.447 79.9625 238.331 80.1025 239.048 80.3825C239.766 80.645 240.326 81.0037 240.728 81.4587C241.148 81.9137 241.446 82.43 241.621 83.0075C241.813 83.585 241.91 84.1712 241.91 84.7662V93.2712C241.91 93.4462 241.848 93.595 241.726 93.7175C241.621 93.8225 241.481 93.875 241.306 93.875H240.098C239.906 93.875 239.757 93.8225 239.652 93.7175C239.547 93.595 239.495 93.4462 239.495 93.2712V92.1425C239.267 92.4575 238.961 92.7725 238.576 93.0875C238.191 93.385 237.71 93.6387 237.132 93.8487C236.555 94.0413 235.846 94.1375 235.006 94.1375ZM235.557 92.1687C236.275 92.1687 236.931 92.02 237.526 91.7225C238.121 91.4075 238.585 90.9262 238.917 90.2787C239.267 89.6312 239.442 88.8175 239.442 87.8375V87.1025L236.397 87.5487C235.155 87.7237 234.218 88.0212 233.588 88.4412C232.958 88.8437 232.643 89.36 232.643 89.99C232.643 90.48 232.783 90.8912 233.063 91.2237C233.361 91.5387 233.728 91.775 234.166 91.9325C234.621 92.09 235.085 92.1687 235.557 92.1687ZM247.79 98.8625C247.65 98.8625 247.527 98.81 247.422 98.705C247.317 98.6 247.265 98.4775 247.265 98.3375C247.265 98.2675 247.274 98.1975 247.291 98.1275C247.309 98.0575 247.344 97.97 247.396 97.865L249.417 93.0612L244.404 81.2225C244.316 81.0125 244.272 80.8637 244.272 80.7762C244.272 80.6187 244.325 80.4875 244.43 80.3825C244.535 80.2775 244.666 80.225 244.824 80.225H246.11C246.285 80.225 246.425 80.2687 246.53 80.3562C246.635 80.4437 246.705 80.5487 246.74 80.6712L250.73 90.2262L254.825 80.6712C254.877 80.5487 254.947 80.4437 255.035 80.3562C255.14 80.2687 255.289 80.225 255.481 80.225H256.715C256.872 80.225 257.004 80.2775 257.109 80.3825C257.214 80.4875 257.266 80.61 257.266 80.75C257.266 80.8375 257.222 80.995 257.135 81.2225L249.68 98.4163C249.627 98.5388 249.549 98.6438 249.444 98.7313C249.356 98.8188 249.216 98.8625 249.024 98.8625H247.79ZM260.463 93.875C260.288 93.875 260.139 93.8225 260.017 93.7175C259.912 93.595 259.859 93.4462 259.859 93.2712V80.8287C259.859 80.6537 259.912 80.5137 260.017 80.4087C260.139 80.2862 260.288 80.225 260.463 80.225H261.644C261.819 80.225 261.959 80.2862 262.064 80.4087C262.187 80.5137 262.248 80.6537 262.248 80.8287V81.7475C262.65 81.205 263.158 80.7762 263.77 80.4612C264.383 80.1287 265.118 79.9625 265.975 79.9625C267.953 79.945 269.353 80.75 270.175 82.3775C270.578 81.6425 271.164 81.0562 271.934 80.6188C272.704 80.1812 273.579 79.9625 274.559 79.9625C275.469 79.9625 276.292 80.1725 277.027 80.5925C277.779 81.0125 278.365 81.6512 278.785 82.5087C279.223 83.3487 279.442 84.4075 279.442 85.685V93.2712C279.442 93.4462 279.38 93.595 279.258 93.7175C279.153 93.8225 279.013 93.875 278.838 93.875H277.604C277.429 93.875 277.28 93.8225 277.158 93.7175C277.053 93.595 277 93.4462 277 93.2712V85.9212C277 84.9412 276.86 84.1712 276.58 83.6112C276.3 83.0512 275.924 82.6575 275.452 82.43C274.979 82.2025 274.463 82.0887 273.903 82.0887C273.448 82.0887 272.984 82.2025 272.512 82.43C272.039 82.6575 271.645 83.0512 271.33 83.6112C271.033 84.1712 270.884 84.9412 270.884 85.9212V93.2712C270.884 93.4462 270.823 93.595 270.7 93.7175C270.595 93.8225 270.455 93.875 270.28 93.875H269.047C268.872 93.875 268.723 93.8225 268.6 93.7175C268.495 93.595 268.443 93.4462 268.443 93.2712V85.9212C268.443 84.9412 268.294 84.1712 267.997 83.6112C267.699 83.0512 267.314 82.6575 266.842 82.43C266.369 82.2025 265.87 82.0887 265.345 82.0887C264.89 82.0887 264.427 82.2025 263.954 82.43C263.482 82.6575 263.088 83.0512 262.773 83.6112C262.475 84.1712 262.327 84.9325 262.327 85.895V93.2712C262.327 93.4462 262.265 93.595 262.143 93.7175C262.038 93.8225 261.898 93.875 261.723 93.875H260.463ZM288.621 94.1375C286.818 94.1375 285.383 93.5862 284.316 92.4837C283.248 91.3637 282.662 89.8412 282.557 87.9162C282.539 87.6887 282.531 87.4 282.531 87.05C282.531 86.6825 282.539 86.385 282.557 86.1575C282.627 84.915 282.916 83.83 283.423 82.9025C283.931 81.9575 284.622 81.2312 285.497 80.7237C286.389 80.2162 287.431 79.9625 288.621 79.9625C289.951 79.9625 291.062 80.2425 291.954 80.8025C292.864 81.3625 293.556 82.1587 294.028 83.1912C294.501 84.2237 294.737 85.4312 294.737 86.8137V87.26C294.737 87.4525 294.676 87.6012 294.553 87.7062C294.448 87.8112 294.308 87.8637 294.133 87.8637H285.051C285.051 87.8812 285.051 87.9162 285.051 87.9687C285.051 88.0212 285.051 88.065 285.051 88.1C285.086 88.8175 285.243 89.4912 285.523 90.1212C285.803 90.7337 286.206 91.2325 286.731 91.6175C287.256 92.0025 287.886 92.195 288.621 92.195C289.251 92.195 289.776 92.0987 290.196 91.9062C290.616 91.7137 290.957 91.5037 291.219 91.2762C291.482 91.0312 291.657 90.8475 291.744 90.725C291.902 90.4975 292.024 90.3662 292.112 90.3312C292.199 90.2787 292.339 90.2525 292.532 90.2525H293.792C293.967 90.2525 294.107 90.305 294.212 90.41C294.334 90.4975 294.387 90.6287 294.369 90.8037C294.352 91.0662 294.212 91.39 293.949 91.775C293.687 92.1425 293.311 92.51 292.821 92.8775C292.331 93.245 291.736 93.5512 291.036 93.7962C290.336 94.0238 289.531 94.1375 288.621 94.1375ZM285.051 86.0525H292.243V85.9737C292.243 85.1862 292.094 84.4862 291.797 83.8737C291.517 83.2612 291.106 82.78 290.563 82.43C290.021 82.0625 289.373 81.8787 288.621 81.8787C287.868 81.8787 287.221 82.0625 286.678 82.43C286.153 82.78 285.751 83.2612 285.471 83.8737C285.191 84.4862 285.051 85.1862 285.051 85.9737V86.0525ZM298.479 93.875C298.304 93.875 298.156 93.8225 298.033 93.7175C297.928 93.595 297.876 93.4462 297.876 93.2712V80.8287C297.876 80.6537 297.928 80.5137 298.033 80.4087C298.156 80.2862 298.304 80.225 298.479 80.225H299.713C299.888 80.225 300.028 80.2862 300.133 80.4087C300.256 80.5137 300.317 80.6537 300.317 80.8287V81.9837C300.772 81.3887 301.341 80.9075 302.023 80.54C302.723 80.155 303.616 79.9625 304.701 79.9625C305.838 79.9625 306.801 80.2162 307.588 80.7237C308.393 81.2137 308.997 81.905 309.399 82.7975C309.802 83.6725 310.003 84.6962 310.003 85.8687V93.2712C310.003 93.4462 309.951 93.595 309.846 93.7175C309.741 93.8225 309.601 93.875 309.426 93.875H308.113C307.938 93.875 307.789 93.8225 307.667 93.7175C307.562 93.595 307.509 93.4462 307.509 93.2712V86C307.509 84.775 307.212 83.8212 306.617 83.1387C306.022 82.4387 305.147 82.0887 303.992 82.0887C302.907 82.0887 302.032 82.4387 301.367 83.1387C300.719 83.8212 300.396 84.775 300.396 86V93.2712C300.396 93.4462 300.334 93.595 300.212 93.7175C300.107 93.8225 299.967 93.875 299.792 93.875H298.479ZM318.944 93.875C317.964 93.875 317.168 93.6912 316.555 93.3237C315.943 92.9387 315.497 92.405 315.217 91.7225C314.937 91.0225 314.797 90.2 314.797 89.255V82.325H312.749C312.574 82.325 312.425 82.2725 312.303 82.1675C312.198 82.045 312.145 81.8962 312.145 81.7212V80.8287C312.145 80.6537 312.198 80.5137 312.303 80.4087C312.425 80.2862 312.574 80.225 312.749 80.225H314.797V75.8412C314.797 75.6662 314.849 75.5262 314.954 75.4212C315.077 75.2987 315.225 75.2375 315.4 75.2375H316.634C316.809 75.2375 316.949 75.2987 317.054 75.4212C317.177 75.5262 317.238 75.6662 317.238 75.8412V80.225H320.493C320.668 80.225 320.808 80.2862 320.913 80.4087C321.035 80.5137 321.097 80.6537 321.097 80.8287V81.7212C321.097 81.8962 321.035 82.045 320.913 82.1675C320.808 82.2725 320.668 82.325 320.493 82.325H317.238V89.0712C317.238 89.8937 317.378 90.5412 317.658 91.0137C317.938 91.4862 318.437 91.7225 319.154 91.7225H320.755C320.93 91.7225 321.07 91.7837 321.175 91.9062C321.298 92.0112 321.359 92.1512 321.359 92.3262V93.2712C321.359 93.4462 321.298 93.595 321.175 93.7175C321.07 93.8225 320.93 93.875 320.755 93.875H318.944Z" fill="#303030"/>
<path d="M119.214 147.033C118.248 147.033 117.445 146.854 116.805 146.497C116.175 146.14 115.697 145.641 115.371 145.001C115.046 144.36 114.867 143.615 114.836 142.764C114.825 142.334 114.82 141.872 114.82 141.378C114.82 140.885 114.825 140.412 114.836 139.961C114.867 139.11 115.046 138.365 115.371 137.724C115.697 137.084 116.175 136.585 116.805 136.228C117.445 135.871 118.248 135.692 119.214 135.692C119.939 135.692 120.574 135.792 121.12 135.992C121.666 136.191 122.118 136.459 122.475 136.795C122.842 137.131 123.12 137.509 123.309 137.929C123.498 138.338 123.603 138.764 123.624 139.205C123.635 139.299 123.603 139.378 123.53 139.441C123.467 139.504 123.388 139.535 123.294 139.535H122.427C122.333 139.535 122.249 139.509 122.175 139.457C122.112 139.404 122.065 139.31 122.034 139.173C121.855 138.354 121.519 137.792 121.026 137.488C120.543 137.183 119.934 137.031 119.199 137.031C118.359 137.031 117.692 137.273 117.198 137.756C116.705 138.228 116.437 138.989 116.395 140.039C116.364 140.9 116.364 141.782 116.395 142.685C116.437 143.735 116.705 144.502 117.198 144.985C117.692 145.457 118.359 145.694 119.199 145.694C119.934 145.694 120.543 145.541 121.026 145.237C121.519 144.932 121.855 144.371 122.034 143.552C122.065 143.415 122.112 143.321 122.175 143.268C122.249 143.216 122.333 143.189 122.427 143.189H123.294C123.388 143.189 123.467 143.221 123.53 143.284C123.603 143.347 123.635 143.426 123.624 143.52C123.603 143.961 123.498 144.392 123.309 144.812C123.12 145.221 122.842 145.594 122.475 145.93C122.118 146.266 121.666 146.534 121.12 146.733C120.574 146.933 119.939 147.033 119.214 147.033ZM128.885 147.033C128.087 147.033 127.42 146.88 126.885 146.576C126.349 146.271 125.94 145.851 125.656 145.316C125.373 144.77 125.215 144.15 125.184 143.457C125.173 143.279 125.168 143.053 125.168 142.78C125.168 142.496 125.173 142.271 125.184 142.103C125.215 141.399 125.373 140.78 125.656 140.244C125.95 139.709 126.365 139.289 126.9 138.984C127.436 138.68 128.097 138.527 128.885 138.527C129.672 138.527 130.334 138.68 130.869 138.984C131.405 139.289 131.814 139.709 132.098 140.244C132.392 140.78 132.555 141.399 132.586 142.103C132.597 142.271 132.602 142.496 132.602 142.78C132.602 143.053 132.597 143.279 132.586 143.457C132.555 144.15 132.397 144.77 132.114 145.316C131.83 145.851 131.421 146.271 130.885 146.576C130.35 146.88 129.683 147.033 128.885 147.033ZM128.885 145.82C129.536 145.82 130.056 145.615 130.444 145.205C130.833 144.785 131.043 144.176 131.074 143.378C131.085 143.221 131.09 143.021 131.09 142.78C131.09 142.538 131.085 142.339 131.074 142.181C131.043 141.383 130.833 140.78 130.444 140.37C130.056 139.95 129.536 139.74 128.885 139.74C128.234 139.74 127.709 139.95 127.31 140.37C126.921 140.78 126.717 141.383 126.696 142.181C126.685 142.339 126.68 142.538 126.68 142.78C126.68 143.021 126.685 143.221 126.696 143.378C126.717 144.176 126.921 144.785 127.31 145.205C127.709 145.615 128.234 145.82 128.885 145.82ZM137.409 147.033C136.821 147.033 136.317 146.959 135.897 146.812C135.477 146.665 135.136 146.486 134.873 146.276C134.611 146.066 134.411 145.856 134.275 145.646C134.149 145.436 134.081 145.268 134.07 145.142C134.06 145.027 134.096 144.938 134.18 144.875C134.264 144.812 134.348 144.78 134.432 144.78H135.125C135.188 144.78 135.236 144.791 135.267 144.812C135.309 144.822 135.362 144.864 135.425 144.938C135.561 145.085 135.713 145.232 135.881 145.379C136.049 145.526 136.254 145.646 136.496 145.741C136.748 145.835 137.057 145.883 137.425 145.883C137.96 145.883 138.401 145.783 138.748 145.583C139.094 145.373 139.268 145.069 139.268 144.67C139.268 144.407 139.194 144.197 139.047 144.04C138.911 143.882 138.659 143.741 138.291 143.615C137.934 143.489 137.441 143.357 136.811 143.221C136.181 143.074 135.682 142.895 135.314 142.685C134.947 142.465 134.684 142.208 134.527 141.914C134.369 141.609 134.291 141.268 134.291 140.89C134.291 140.501 134.406 140.129 134.637 139.772C134.868 139.404 135.204 139.105 135.645 138.874C136.097 138.643 136.658 138.527 137.33 138.527C137.876 138.527 138.344 138.596 138.732 138.732C139.121 138.869 139.441 139.042 139.693 139.252C139.945 139.451 140.134 139.651 140.26 139.85C140.386 140.05 140.454 140.218 140.465 140.354C140.475 140.459 140.444 140.549 140.37 140.622C140.297 140.685 140.213 140.717 140.118 140.717H139.457C139.383 140.717 139.32 140.701 139.268 140.669C139.226 140.638 139.184 140.601 139.142 140.559C139.037 140.423 138.911 140.286 138.764 140.15C138.627 140.013 138.443 139.903 138.212 139.819C137.992 139.724 137.698 139.677 137.33 139.677C136.805 139.677 136.412 139.787 136.149 140.008C135.887 140.228 135.755 140.507 135.755 140.843C135.755 141.042 135.813 141.221 135.929 141.378C136.044 141.536 136.265 141.677 136.59 141.803C136.916 141.929 137.399 142.066 138.039 142.213C138.732 142.349 139.278 142.533 139.677 142.764C140.076 142.995 140.36 143.263 140.528 143.567C140.696 143.872 140.78 144.224 140.78 144.623C140.78 145.064 140.648 145.468 140.386 145.836C140.134 146.203 139.756 146.497 139.252 146.717C138.758 146.928 138.144 147.033 137.409 147.033ZM145.785 146.875C145.197 146.875 144.719 146.765 144.352 146.544C143.984 146.313 143.716 145.993 143.548 145.583C143.38 145.163 143.296 144.67 143.296 144.103V139.945H142.068C141.963 139.945 141.874 139.913 141.8 139.85C141.737 139.777 141.706 139.688 141.706 139.583V139.047C141.706 138.942 141.737 138.858 141.8 138.795C141.874 138.722 141.963 138.685 142.068 138.685H143.296V136.055C143.296 135.95 143.328 135.866 143.391 135.803C143.464 135.729 143.554 135.692 143.659 135.692H144.399C144.504 135.692 144.588 135.729 144.651 135.803C144.724 135.866 144.761 135.95 144.761 136.055V138.685H146.714C146.819 138.685 146.903 138.722 146.966 138.795C147.04 138.858 147.076 138.942 147.076 139.047V139.583C147.076 139.688 147.04 139.777 146.966 139.85C146.903 139.913 146.819 139.945 146.714 139.945H144.761V143.993C144.761 144.486 144.845 144.875 145.013 145.158C145.181 145.442 145.48 145.583 145.911 145.583H146.872C146.977 145.583 147.061 145.62 147.124 145.694C147.197 145.757 147.234 145.841 147.234 145.946V146.513C147.234 146.618 147.197 146.707 147.124 146.78C147.061 146.843 146.977 146.875 146.872 146.875H145.785ZM148.87 142.811C148.765 142.811 148.675 142.78 148.602 142.717C148.539 142.643 148.507 142.554 148.507 142.449V141.851C148.507 141.746 148.539 141.662 148.602 141.599C148.675 141.525 148.765 141.488 148.87 141.488H153.595C153.7 141.488 153.784 141.525 153.847 141.599C153.92 141.662 153.957 141.746 153.957 141.851V142.449C153.957 142.554 153.92 142.643 153.847 142.717C153.784 142.78 153.7 142.811 153.595 142.811H148.87ZM159.475 147.033C158.394 147.033 157.533 146.702 156.892 146.04C156.252 145.368 155.9 144.455 155.837 143.3C155.827 143.163 155.821 142.99 155.821 142.78C155.821 142.559 155.827 142.381 155.837 142.245C155.879 141.499 156.052 140.848 156.357 140.291C156.661 139.724 157.076 139.289 157.601 138.984C158.137 138.68 158.761 138.527 159.475 138.527C160.273 138.527 160.94 138.695 161.476 139.031C162.022 139.367 162.436 139.845 162.72 140.465C163.003 141.084 163.145 141.809 163.145 142.638V142.906C163.145 143.021 163.108 143.111 163.035 143.174C162.972 143.237 162.888 143.268 162.783 143.268H157.333C157.333 143.279 157.333 143.3 157.333 143.331C157.333 143.363 157.333 143.389 157.333 143.41C157.354 143.84 157.449 144.245 157.617 144.623C157.785 144.99 158.026 145.289 158.341 145.52C158.656 145.751 159.034 145.867 159.475 145.867C159.853 145.867 160.168 145.809 160.42 145.694C160.672 145.578 160.877 145.452 161.035 145.316C161.192 145.169 161.297 145.058 161.35 144.985C161.444 144.848 161.518 144.77 161.57 144.749C161.623 144.717 161.707 144.701 161.822 144.701H162.578C162.683 144.701 162.767 144.733 162.83 144.796C162.904 144.848 162.935 144.927 162.925 145.032C162.914 145.19 162.83 145.384 162.673 145.615C162.515 145.835 162.289 146.056 161.995 146.276C161.701 146.497 161.344 146.681 160.924 146.828C160.504 146.964 160.021 147.033 159.475 147.033ZM157.333 142.181H161.649V142.134C161.649 141.662 161.56 141.242 161.381 140.874C161.213 140.507 160.966 140.218 160.641 140.008C160.315 139.787 159.927 139.677 159.475 139.677C159.024 139.677 158.635 139.787 158.31 140.008C157.995 140.218 157.753 140.507 157.585 140.874C157.417 141.242 157.333 141.662 157.333 142.134V142.181ZM166.133 146.875C166.028 146.875 165.938 146.843 165.865 146.78C165.802 146.707 165.77 146.618 165.77 146.513V139.945H164.432C164.327 139.945 164.237 139.913 164.164 139.85C164.101 139.777 164.069 139.688 164.069 139.583V139.047C164.069 138.942 164.101 138.858 164.164 138.795C164.237 138.722 164.327 138.685 164.432 138.685H165.77V137.897C165.77 137.362 165.86 136.895 166.038 136.496C166.217 136.086 166.5 135.771 166.889 135.551C167.288 135.33 167.818 135.22 168.479 135.22H169.424C169.529 135.22 169.613 135.257 169.676 135.33C169.739 135.393 169.771 135.477 169.771 135.582V136.118C169.771 136.223 169.739 136.312 169.676 136.385C169.613 136.448 169.529 136.48 169.424 136.48H168.511C168.017 136.48 167.681 136.611 167.503 136.874C167.324 137.126 167.235 137.493 167.235 137.976V138.685H170.606V137.897C170.606 137.362 170.69 136.895 170.858 136.496C171.036 136.086 171.32 135.771 171.708 135.551C172.107 135.33 172.637 135.22 173.299 135.22H175.74C175.845 135.22 175.929 135.257 175.992 135.33C176.055 135.393 176.087 135.477 176.087 135.582V136.118C176.087 136.223 176.055 136.312 175.992 136.385C175.929 136.448 175.845 136.48 175.74 136.48H173.33C172.837 136.48 172.501 136.611 172.322 136.874C172.144 137.126 172.055 137.493 172.055 137.976V138.685H175.74C175.845 138.685 175.929 138.722 175.992 138.795C176.055 138.858 176.087 138.942 176.087 139.047V146.513C176.087 146.618 176.055 146.707 175.992 146.78C175.929 146.843 175.845 146.875 175.74 146.875H175C174.895 146.875 174.806 146.843 174.732 146.78C174.669 146.707 174.638 146.618 174.638 146.513V139.945H172.055V146.513C172.055 146.618 172.023 146.707 171.96 146.78C171.897 146.843 171.808 146.875 171.692 146.875H170.968C170.863 146.875 170.774 146.843 170.7 146.78C170.637 146.707 170.606 146.618 170.606 146.513V139.945H167.235V146.513C167.235 146.618 167.198 146.707 167.125 146.78C167.062 146.843 166.978 146.875 166.873 146.875H166.133ZM181.748 147.033C181.002 147.033 180.357 146.891 179.811 146.607C179.275 146.313 178.86 145.898 178.566 145.363C178.272 144.817 178.115 144.166 178.094 143.41C178.083 143.252 178.078 143.042 178.078 142.78C178.078 142.517 178.083 142.307 178.094 142.15C178.115 141.394 178.272 140.748 178.566 140.213C178.86 139.667 179.275 139.252 179.811 138.968C180.357 138.674 181.002 138.527 181.748 138.527C182.357 138.527 182.877 138.611 183.307 138.78C183.748 138.947 184.11 139.163 184.394 139.425C184.677 139.688 184.887 139.971 185.024 140.276C185.171 140.58 185.25 140.869 185.26 141.142C185.271 141.247 185.239 141.331 185.166 141.394C185.092 141.457 185.003 141.488 184.898 141.488H184.142C184.037 141.488 183.958 141.467 183.906 141.425C183.853 141.373 183.801 141.289 183.748 141.173C183.559 140.659 183.302 140.297 182.976 140.087C182.651 139.877 182.247 139.772 181.764 139.772C181.134 139.772 180.619 139.966 180.22 140.354C179.832 140.743 179.622 141.368 179.59 142.229C179.58 142.607 179.58 142.974 179.59 143.331C179.622 144.203 179.832 144.833 180.22 145.221C180.619 145.599 181.134 145.788 181.764 145.788C182.247 145.788 182.651 145.683 182.976 145.473C183.302 145.263 183.559 144.901 183.748 144.386C183.801 144.271 183.853 144.192 183.906 144.15C183.958 144.098 184.037 144.071 184.142 144.071H184.898C185.003 144.071 185.092 144.103 185.166 144.166C185.239 144.229 185.271 144.313 185.26 144.418C185.25 144.638 185.202 144.864 185.118 145.095C185.034 145.326 184.898 145.562 184.709 145.804C184.53 146.035 184.305 146.245 184.032 146.434C183.759 146.612 183.428 146.759 183.039 146.875C182.661 146.98 182.231 147.033 181.748 147.033ZM187.493 146.875C187.388 146.875 187.299 146.843 187.225 146.78C187.162 146.707 187.131 146.618 187.131 146.513V139.047C187.131 138.942 187.162 138.858 187.225 138.795C187.299 138.722 187.388 138.685 187.493 138.685H188.249C188.354 138.685 188.438 138.722 188.501 138.795C188.564 138.858 188.595 138.942 188.595 139.047V146.513C188.595 146.618 188.564 146.707 188.501 146.78C188.438 146.843 188.354 146.875 188.249 146.875H187.493ZM187.367 137.157C187.262 137.157 187.173 137.126 187.099 137.063C187.036 136.989 187.005 136.9 187.005 136.795V135.944C187.005 135.839 187.036 135.755 187.099 135.692C187.173 135.619 187.262 135.582 187.367 135.582H188.359C188.464 135.582 188.548 135.619 188.611 135.692C188.685 135.755 188.721 135.839 188.721 135.944V136.795C188.721 136.9 188.685 136.989 188.611 137.063C188.548 137.126 188.464 137.157 188.359 137.157H187.367ZM194.205 147.033C193.124 147.033 192.263 146.702 191.622 146.04C190.982 145.368 190.63 144.455 190.567 143.3C190.557 143.163 190.551 142.99 190.551 142.78C190.551 142.559 190.557 142.381 190.567 142.245C190.609 141.499 190.782 140.848 191.087 140.291C191.391 139.724 191.806 139.289 192.331 138.984C192.867 138.68 193.491 138.527 194.205 138.527C195.003 138.527 195.67 138.695 196.206 139.031C196.752 139.367 197.166 139.845 197.45 140.465C197.733 141.084 197.875 141.809 197.875 142.638V142.906C197.875 143.021 197.838 143.111 197.765 143.174C197.702 143.237 197.618 143.268 197.513 143.268H192.063C192.063 143.279 192.063 143.3 192.063 143.331C192.063 143.363 192.063 143.389 192.063 143.41C192.084 143.84 192.179 144.245 192.347 144.623C192.515 144.99 192.756 145.289 193.071 145.52C193.386 145.751 193.764 145.867 194.205 145.867C194.583 145.867 194.898 145.809 195.15 145.694C195.402 145.578 195.607 145.452 195.765 145.316C195.922 145.169 196.027 145.058 196.08 144.985C196.174 144.848 196.248 144.77 196.3 144.749C196.353 144.717 196.437 144.701 196.552 144.701H197.308C197.413 144.701 197.497 144.733 197.56 144.796C197.634 144.848 197.665 144.927 197.655 145.032C197.644 145.19 197.56 145.384 197.403 145.615C197.245 145.835 197.019 146.056 196.725 146.276C196.431 146.497 196.074 146.681 195.654 146.828C195.234 146.964 194.751 147.033 194.205 147.033ZM192.063 142.181H196.379V142.134C196.379 141.662 196.29 141.242 196.111 140.874C195.943 140.507 195.696 140.218 195.371 140.008C195.045 139.787 194.657 139.677 194.205 139.677C193.754 139.677 193.365 139.787 193.04 140.008C192.725 140.218 192.483 140.507 192.315 140.874C192.147 141.242 192.063 141.662 192.063 142.134V142.181ZM200.121 146.875C200.016 146.875 199.926 146.843 199.853 146.78C199.79 146.707 199.758 146.618 199.758 146.513V139.047C199.758 138.942 199.79 138.858 199.853 138.795C199.926 138.722 200.016 138.685 200.121 138.685H200.861C200.966 138.685 201.05 138.722 201.113 138.795C201.186 138.858 201.223 138.942 201.223 139.047V139.74C201.496 139.383 201.837 139.094 202.247 138.874C202.667 138.643 203.202 138.527 203.853 138.527C204.536 138.527 205.113 138.68 205.586 138.984C206.069 139.278 206.431 139.693 206.673 140.228C206.914 140.753 207.035 141.368 207.035 142.071V146.513C207.035 146.618 207.003 146.707 206.94 146.78C206.877 146.843 206.793 146.875 206.688 146.875H205.901C205.796 146.875 205.707 146.843 205.633 146.78C205.57 146.707 205.539 146.618 205.539 146.513V142.15C205.539 141.415 205.36 140.843 205.003 140.433C204.646 140.013 204.121 139.803 203.428 139.803C202.777 139.803 202.252 140.013 201.853 140.433C201.465 140.843 201.27 141.415 201.27 142.15V146.513C201.27 146.618 201.234 146.707 201.16 146.78C201.097 146.843 201.013 146.875 200.908 146.875H200.121ZM212.399 146.875C211.811 146.875 211.334 146.765 210.966 146.544C210.599 146.313 210.331 145.993 210.163 145.583C209.995 145.163 209.911 144.67 209.911 144.103V139.945H208.682C208.577 139.945 208.488 139.913 208.415 139.85C208.352 139.777 208.32 139.688 208.32 139.583V139.047C208.32 138.942 208.352 138.858 208.415 138.795C208.488 138.722 208.577 138.685 208.682 138.685H209.911V136.055C209.911 135.95 209.942 135.866 210.005 135.803C210.079 135.729 210.168 135.692 210.273 135.692H211.013C211.118 135.692 211.202 135.729 211.265 135.803C211.339 135.866 211.376 135.95 211.376 136.055V138.685H213.329C213.434 138.685 213.518 138.722 213.581 138.795C213.654 138.858 213.691 138.942 213.691 139.047V139.583C213.691 139.688 213.654 139.777 213.581 139.85C213.518 139.913 213.434 139.945 213.329 139.945H211.376V143.993C211.376 144.486 211.46 144.875 211.628 145.158C211.796 145.442 212.095 145.583 212.525 145.583H213.486C213.591 145.583 213.675 145.62 213.738 145.694C213.812 145.757 213.848 145.841 213.848 145.946V146.513C213.848 146.618 213.812 146.707 213.738 146.78C213.675 146.843 213.591 146.875 213.486 146.875H212.399Z" fill="#282828" fill-opacity="0.3"/>
<rect x="113.875" y="159.125" width="329" height="26" rx="13" fill="#F5F5F5"/>
<path d="M118.789 218.033C117.876 218.033 117.109 217.896 116.49 217.623C115.87 217.339 115.392 216.977 115.056 216.536C114.731 216.085 114.558 215.607 114.537 215.103C114.537 215.019 114.568 214.945 114.631 214.882C114.705 214.809 114.789 214.772 114.883 214.772H115.686C115.812 214.772 115.907 214.804 115.97 214.867C116.033 214.93 116.075 215.003 116.096 215.087C116.148 215.339 116.274 215.591 116.474 215.843C116.684 216.085 116.973 216.289 117.34 216.457C117.718 216.615 118.201 216.694 118.789 216.694C119.692 216.694 120.354 216.536 120.774 216.221C121.204 215.896 121.419 215.465 121.419 214.93C121.419 214.562 121.304 214.268 121.073 214.048C120.852 213.817 120.511 213.612 120.049 213.433C119.587 213.255 118.989 213.061 118.254 212.851C117.487 212.63 116.852 212.389 116.348 212.126C115.844 211.864 115.466 211.538 115.214 211.15C114.972 210.761 114.852 210.268 114.852 209.669C114.852 209.102 115.004 208.598 115.308 208.157C115.613 207.706 116.049 207.349 116.616 207.086C117.193 206.824 117.891 206.692 118.71 206.692C119.361 206.692 119.928 206.782 120.411 206.96C120.905 207.128 121.314 207.359 121.64 207.653C121.965 207.937 122.212 208.246 122.38 208.582C122.548 208.908 122.637 209.228 122.648 209.543C122.648 209.617 122.622 209.69 122.569 209.764C122.517 209.827 122.433 209.858 122.317 209.858H121.482C121.409 209.858 121.33 209.837 121.246 209.795C121.173 209.753 121.115 209.674 121.073 209.559C121.01 209.128 120.768 208.766 120.348 208.472C119.928 208.178 119.382 208.031 118.71 208.031C118.028 208.031 117.471 208.162 117.041 208.425C116.621 208.687 116.411 209.097 116.411 209.653C116.411 210.01 116.511 210.31 116.71 210.551C116.91 210.782 117.225 210.987 117.655 211.165C118.086 211.344 118.647 211.533 119.34 211.732C120.18 211.963 120.868 212.21 121.404 212.473C121.939 212.725 122.333 213.045 122.585 213.433C122.847 213.811 122.979 214.3 122.979 214.898C122.979 215.56 122.805 216.127 122.459 216.599C122.112 217.061 121.624 217.418 120.994 217.67C120.375 217.912 119.64 218.033 118.789 218.033ZM128.098 218.033C127.017 218.033 126.156 217.702 125.515 217.04C124.875 216.368 124.523 215.455 124.46 214.3C124.45 214.163 124.444 213.99 124.444 213.78C124.444 213.559 124.45 213.381 124.46 213.245C124.502 212.499 124.675 211.848 124.98 211.291C125.284 210.724 125.699 210.289 126.224 209.984C126.76 209.68 127.384 209.527 128.098 209.527C128.896 209.527 129.563 209.695 130.099 210.031C130.645 210.367 131.059 210.845 131.343 211.465C131.626 212.084 131.768 212.809 131.768 213.638V213.906C131.768 214.021 131.731 214.111 131.658 214.174C131.595 214.237 131.511 214.268 131.406 214.268H125.956C125.956 214.279 125.956 214.3 125.956 214.331C125.956 214.363 125.956 214.389 125.956 214.41C125.977 214.84 126.072 215.245 126.24 215.623C126.408 215.99 126.649 216.289 126.964 216.52C127.279 216.751 127.657 216.867 128.098 216.867C128.476 216.867 128.791 216.809 129.043 216.694C129.295 216.578 129.5 216.452 129.658 216.316C129.815 216.169 129.92 216.058 129.973 215.985C130.067 215.848 130.141 215.77 130.193 215.749C130.246 215.717 130.33 215.701 130.445 215.701H131.201C131.306 215.701 131.39 215.733 131.453 215.796C131.527 215.848 131.558 215.927 131.548 216.032C131.537 216.19 131.453 216.384 131.296 216.615C131.138 216.835 130.912 217.056 130.618 217.276C130.324 217.497 129.967 217.681 129.547 217.828C129.127 217.964 128.644 218.033 128.098 218.033ZM125.956 213.181H130.272V213.134C130.272 212.662 130.183 212.242 130.004 211.874C129.836 211.507 129.589 211.218 129.264 211.008C128.938 210.787 128.55 210.677 128.098 210.677C127.647 210.677 127.258 210.787 126.933 211.008C126.618 211.218 126.376 211.507 126.208 211.874C126.04 212.242 125.956 212.662 125.956 213.134V213.181ZM136.959 218.033C136.213 218.033 135.568 217.891 135.022 217.607C134.486 217.313 134.071 216.898 133.777 216.363C133.483 215.817 133.326 215.166 133.305 214.41C133.294 214.252 133.289 214.042 133.289 213.78C133.289 213.517 133.294 213.307 133.305 213.15C133.326 212.394 133.483 211.748 133.777 211.213C134.071 210.667 134.486 210.252 135.022 209.968C135.568 209.674 136.213 209.527 136.959 209.527C137.568 209.527 138.088 209.611 138.518 209.78C138.959 209.947 139.321 210.163 139.605 210.425C139.888 210.688 140.098 210.971 140.235 211.276C140.382 211.58 140.461 211.869 140.471 212.142C140.482 212.247 140.45 212.331 140.377 212.394C140.303 212.457 140.214 212.488 140.109 212.488H139.353C139.248 212.488 139.169 212.467 139.117 212.425C139.064 212.373 139.012 212.289 138.959 212.173C138.77 211.659 138.513 211.297 138.187 211.087C137.862 210.877 137.458 210.772 136.975 210.772C136.345 210.772 135.83 210.966 135.431 211.354C135.043 211.743 134.833 212.368 134.801 213.229C134.791 213.607 134.791 213.974 134.801 214.331C134.833 215.203 135.043 215.833 135.431 216.221C135.83 216.599 136.345 216.788 136.975 216.788C137.458 216.788 137.862 216.683 138.187 216.473C138.513 216.263 138.77 215.901 138.959 215.386C139.012 215.271 139.064 215.192 139.117 215.15C139.169 215.098 139.248 215.071 139.353 215.071H140.109C140.214 215.071 140.303 215.103 140.377 215.166C140.45 215.229 140.482 215.313 140.471 215.418C140.461 215.638 140.413 215.864 140.329 216.095C140.245 216.326 140.109 216.562 139.92 216.804C139.741 217.035 139.516 217.245 139.243 217.434C138.97 217.612 138.639 217.759 138.25 217.875C137.872 217.98 137.442 218.033 136.959 218.033ZM145.397 218.033C144.725 218.033 144.153 217.886 143.68 217.591C143.218 217.287 142.867 216.867 142.625 216.331C142.384 215.796 142.263 215.182 142.263 214.489V210.047C142.263 209.942 142.294 209.858 142.357 209.795C142.431 209.722 142.52 209.685 142.625 209.685H143.413C143.518 209.685 143.602 209.722 143.665 209.795C143.738 209.858 143.775 209.942 143.775 210.047V214.41C143.775 215.974 144.457 216.757 145.822 216.757C146.473 216.757 146.993 216.552 147.382 216.142C147.781 215.722 147.98 215.145 147.98 214.41V210.047C147.98 209.942 148.012 209.858 148.075 209.795C148.148 209.722 148.237 209.685 148.342 209.685H149.114C149.23 209.685 149.319 209.722 149.382 209.795C149.445 209.858 149.476 209.942 149.476 210.047V217.513C149.476 217.618 149.445 217.707 149.382 217.78C149.319 217.843 149.23 217.875 149.114 217.875H148.39C148.285 217.875 148.195 217.843 148.122 217.78C148.059 217.707 148.027 217.618 148.027 217.513V216.82C147.744 217.187 147.397 217.481 146.988 217.702C146.589 217.922 146.059 218.033 145.397 218.033ZM152.178 217.875C152.073 217.875 151.984 217.843 151.911 217.78C151.848 217.707 151.816 217.618 151.816 217.513V210.063C151.816 209.958 151.848 209.869 151.911 209.795C151.984 209.722 152.073 209.685 152.178 209.685H152.903C153.008 209.685 153.097 209.722 153.171 209.795C153.244 209.869 153.281 209.958 153.281 210.063V210.756C153.491 210.399 153.78 210.131 154.147 209.953C154.515 209.774 154.956 209.685 155.47 209.685H156.1C156.205 209.685 156.289 209.722 156.352 209.795C156.415 209.858 156.447 209.942 156.447 210.047V210.693C156.447 210.798 156.415 210.882 156.352 210.945C156.289 211.008 156.205 211.039 156.1 211.039H155.155C154.588 211.039 154.142 211.207 153.816 211.543C153.491 211.869 153.328 212.315 153.328 212.882V217.513C153.328 217.618 153.291 217.707 153.218 217.78C153.144 217.843 153.055 217.875 152.95 217.875H152.178ZM160.906 218.033C159.824 218.033 158.963 217.702 158.323 217.04C157.682 216.368 157.33 215.455 157.267 214.3C157.257 214.163 157.252 213.99 157.252 213.78C157.252 213.559 157.257 213.381 157.267 213.245C157.309 212.499 157.483 211.848 157.787 211.291C158.092 210.724 158.506 210.289 159.031 209.984C159.567 209.68 160.192 209.527 160.906 209.527C161.704 209.527 162.37 209.695 162.906 210.031C163.452 210.367 163.867 210.845 164.15 211.465C164.434 212.084 164.575 212.809 164.575 213.638V213.906C164.575 214.021 164.539 214.111 164.465 214.174C164.402 214.237 164.318 214.268 164.213 214.268H158.764C158.764 214.279 158.764 214.3 158.764 214.331C158.764 214.363 158.764 214.389 158.764 214.41C158.785 214.84 158.879 215.245 159.047 215.623C159.215 215.99 159.457 216.289 159.772 216.52C160.087 216.751 160.465 216.867 160.906 216.867C161.284 216.867 161.599 216.809 161.851 216.694C162.103 216.578 162.307 216.452 162.465 216.316C162.622 216.169 162.727 216.058 162.78 215.985C162.874 215.848 162.948 215.77 163 215.749C163.053 215.717 163.137 215.701 163.252 215.701H164.008C164.113 215.701 164.197 215.733 164.26 215.796C164.334 215.848 164.365 215.927 164.355 216.032C164.344 216.19 164.26 216.384 164.103 216.615C163.945 216.835 163.72 217.056 163.426 217.276C163.132 217.497 162.775 217.681 162.355 217.828C161.935 217.964 161.452 218.033 160.906 218.033ZM158.764 213.181H163.079V213.134C163.079 212.662 162.99 212.242 162.811 211.874C162.643 211.507 162.397 211.218 162.071 211.008C161.746 210.787 161.357 210.677 160.906 210.677C160.454 210.677 160.066 210.787 159.74 211.008C159.425 211.218 159.184 211.507 159.016 211.874C158.848 212.242 158.764 212.662 158.764 213.134V213.181ZM169.451 218.033C168.874 218.033 168.375 217.933 167.955 217.733C167.535 217.523 167.188 217.245 166.915 216.898C166.653 216.541 166.453 216.137 166.317 215.686C166.191 215.234 166.117 214.756 166.096 214.252C166.086 214.084 166.081 213.927 166.081 213.78C166.081 213.633 166.086 213.475 166.096 213.307C166.117 212.814 166.191 212.341 166.317 211.89C166.453 211.438 166.653 211.034 166.915 210.677C167.188 210.32 167.535 210.042 167.955 209.842C168.375 209.632 168.874 209.527 169.451 209.527C170.071 209.527 170.585 209.638 170.995 209.858C171.404 210.079 171.74 210.352 172.003 210.677V207.055C172.003 206.95 172.034 206.866 172.097 206.803C172.171 206.729 172.26 206.692 172.365 206.692H173.121C173.226 206.692 173.31 206.729 173.373 206.803C173.446 206.866 173.483 206.95 173.483 207.055V217.513C173.483 217.618 173.446 217.707 173.373 217.78C173.31 217.843 173.226 217.875 173.121 217.875H172.412C172.297 217.875 172.207 217.843 172.144 217.78C172.081 217.707 172.05 217.618 172.05 217.513V216.851C171.787 217.187 171.446 217.471 171.026 217.702C170.606 217.922 170.081 218.033 169.451 218.033ZM169.782 216.757C170.307 216.757 170.727 216.636 171.042 216.394C171.357 216.153 171.593 215.848 171.751 215.481C171.908 215.103 171.992 214.72 172.003 214.331C172.013 214.163 172.018 213.964 172.018 213.733C172.018 213.491 172.013 213.286 172.003 213.118C171.992 212.751 171.903 212.389 171.735 212.032C171.577 211.675 171.336 211.381 171.01 211.15C170.695 210.919 170.286 210.803 169.782 210.803C169.246 210.803 168.821 210.924 168.506 211.165C168.191 211.396 167.965 211.706 167.829 212.095C167.692 212.473 167.614 212.882 167.593 213.323C167.582 213.628 167.582 213.932 167.593 214.237C167.614 214.678 167.692 215.092 167.829 215.481C167.965 215.859 168.191 216.169 168.506 216.41C168.821 216.641 169.246 216.757 169.782 216.757Z" fill="#282828" fill-opacity="0.3"/>
<rect x="113.875" y="230.125" width="329" height="26" rx="13" fill="#F5F5F5"/>
<path d="M115.608 288.875C115.492 288.875 115.403 288.843 115.34 288.78C115.277 288.707 115.245 288.618 115.245 288.513V278.228C115.245 278.112 115.277 278.023 115.34 277.96C115.403 277.887 115.492 277.85 115.608 277.85H122.112C122.228 277.85 122.317 277.887 122.38 277.96C122.443 278.023 122.475 278.112 122.475 278.228V278.826C122.475 278.942 122.443 279.031 122.38 279.094C122.317 279.157 122.228 279.189 122.112 279.189H116.757V282.638H121.766C121.881 282.638 121.971 282.675 122.034 282.748C122.097 282.811 122.128 282.9 122.128 283.016V283.599C122.128 283.704 122.097 283.793 122.034 283.866C121.971 283.929 121.881 283.961 121.766 283.961H116.757V287.536H122.238C122.354 287.536 122.443 287.568 122.506 287.631C122.569 287.694 122.601 287.783 122.601 287.898V288.513C122.601 288.618 122.569 288.707 122.506 288.78C122.443 288.843 122.354 288.875 122.238 288.875H115.608ZM124.97 291.868C124.865 291.868 124.776 291.831 124.702 291.757C124.639 291.694 124.608 291.61 124.608 291.505V281.047C124.608 280.942 124.639 280.858 124.702 280.795C124.776 280.722 124.865 280.685 124.97 280.685H125.695C125.8 280.685 125.884 280.722 125.947 280.795C126.02 280.858 126.057 280.942 126.057 281.047V281.74C126.309 281.394 126.645 281.105 127.065 280.874C127.485 280.643 128.01 280.527 128.64 280.527C129.228 280.527 129.727 280.627 130.136 280.827C130.556 281.026 130.897 281.299 131.16 281.646C131.433 281.992 131.638 282.386 131.774 282.827C131.911 283.268 131.984 283.74 131.995 284.245C132.005 284.412 132.01 284.591 132.01 284.78C132.01 284.969 132.005 285.147 131.995 285.315C131.984 285.809 131.911 286.281 131.774 286.733C131.638 287.174 131.433 287.568 131.16 287.914C130.897 288.25 130.556 288.523 130.136 288.733C129.727 288.933 129.228 289.033 128.64 289.033C128.031 289.033 127.516 288.922 127.096 288.702C126.687 288.471 126.351 288.187 126.088 287.851V291.505C126.088 291.61 126.057 291.694 125.994 291.757C125.931 291.831 125.842 291.868 125.726 291.868H124.97ZM128.309 287.757C128.855 287.757 129.28 287.641 129.585 287.41C129.9 287.169 130.126 286.859 130.262 286.481C130.399 286.092 130.477 285.678 130.498 285.237C130.509 284.932 130.509 284.628 130.498 284.323C130.477 283.882 130.399 283.473 130.262 283.095C130.126 282.706 129.9 282.396 129.585 282.165C129.28 281.924 128.855 281.803 128.309 281.803C127.795 281.803 127.375 281.924 127.049 282.165C126.734 282.407 126.498 282.717 126.34 283.095C126.193 283.462 126.109 283.84 126.088 284.229C126.078 284.397 126.073 284.596 126.073 284.827C126.073 285.058 126.078 285.263 126.088 285.441C126.099 285.809 126.183 286.171 126.34 286.528C126.508 286.885 126.755 287.179 127.081 287.41C127.406 287.641 127.816 287.757 128.309 287.757ZM137.329 289.033C136.531 289.033 135.864 288.88 135.329 288.576C134.793 288.271 134.384 287.851 134.1 287.316C133.817 286.77 133.659 286.15 133.628 285.457C133.617 285.279 133.612 285.053 133.612 284.78C133.612 284.496 133.617 284.271 133.628 284.103C133.659 283.399 133.817 282.78 134.1 282.244C134.394 281.709 134.809 281.289 135.345 280.984C135.88 280.68 136.542 280.527 137.329 280.527C138.117 280.527 138.778 280.68 139.314 280.984C139.849 281.289 140.259 281.709 140.542 282.244C140.836 282.78 140.999 283.399 141.03 284.103C141.041 284.271 141.046 284.496 141.046 284.78C141.046 285.053 141.041 285.279 141.03 285.457C140.999 286.15 140.841 286.77 140.558 287.316C140.274 287.851 139.865 288.271 139.329 288.576C138.794 288.88 138.127 289.033 137.329 289.033ZM137.329 287.82C137.98 287.82 138.5 287.615 138.888 287.205C139.277 286.785 139.487 286.176 139.518 285.378C139.529 285.221 139.534 285.021 139.534 284.78C139.534 284.538 139.529 284.339 139.518 284.181C139.487 283.383 139.277 282.78 138.888 282.37C138.5 281.95 137.98 281.74 137.329 281.74C136.678 281.74 136.153 281.95 135.754 282.37C135.366 282.78 135.161 283.383 135.14 284.181C135.129 284.339 135.124 284.538 135.124 284.78C135.124 285.021 135.129 285.221 135.14 285.378C135.161 286.176 135.366 286.785 135.754 287.205C136.153 287.615 136.678 287.82 137.329 287.82ZM146.326 289.033C145.58 289.033 144.935 288.891 144.389 288.607C143.853 288.313 143.438 287.898 143.144 287.363C142.85 286.817 142.693 286.166 142.672 285.41C142.661 285.252 142.656 285.042 142.656 284.78C142.656 284.517 142.661 284.307 142.672 284.15C142.693 283.394 142.85 282.748 143.144 282.213C143.438 281.667 143.853 281.252 144.389 280.968C144.935 280.674 145.58 280.527 146.326 280.527C146.935 280.527 147.455 280.611 147.885 280.78C148.326 280.947 148.688 281.163 148.972 281.425C149.255 281.688 149.465 281.971 149.602 282.276C149.749 282.58 149.828 282.869 149.838 283.142C149.849 283.247 149.817 283.331 149.744 283.394C149.67 283.457 149.581 283.488 149.476 283.488H148.72C148.615 283.488 148.536 283.467 148.484 283.425C148.431 283.373 148.379 283.289 148.326 283.173C148.137 282.659 147.88 282.297 147.554 282.087C147.229 281.877 146.825 281.772 146.342 281.772C145.712 281.772 145.197 281.966 144.798 282.354C144.41 282.743 144.2 283.368 144.168 284.229C144.158 284.607 144.158 284.974 144.168 285.331C144.2 286.203 144.41 286.833 144.798 287.221C145.197 287.599 145.712 287.788 146.342 287.788C146.825 287.788 147.229 287.683 147.554 287.473C147.88 287.263 148.137 286.901 148.326 286.386C148.379 286.271 148.431 286.192 148.484 286.15C148.536 286.098 148.615 286.071 148.72 286.071H149.476C149.581 286.071 149.67 286.103 149.744 286.166C149.817 286.229 149.849 286.313 149.838 286.418C149.828 286.638 149.78 286.864 149.696 287.095C149.612 287.326 149.476 287.562 149.287 287.804C149.108 288.035 148.883 288.245 148.61 288.434C148.337 288.612 148.006 288.759 147.617 288.875C147.239 288.98 146.809 289.033 146.326 289.033ZM152.086 288.875C151.981 288.875 151.892 288.843 151.819 288.78C151.756 288.707 151.724 288.618 151.724 288.513V278.055C151.724 277.95 151.756 277.866 151.819 277.803C151.892 277.729 151.981 277.692 152.086 277.692H152.874C152.989 277.692 153.079 277.729 153.142 277.803C153.205 277.866 153.236 277.95 153.236 278.055V281.724C153.52 281.367 153.866 281.079 154.276 280.858C154.685 280.638 155.205 280.527 155.835 280.527C156.517 280.527 157.095 280.68 157.567 280.984C158.05 281.278 158.413 281.693 158.654 282.228C158.906 282.753 159.032 283.368 159.032 284.071V288.513C159.032 288.618 159.001 288.707 158.938 288.78C158.875 288.843 158.785 288.875 158.67 288.875H157.882C157.777 288.875 157.688 288.843 157.615 288.78C157.552 288.707 157.52 288.618 157.52 288.513V284.15C157.52 283.415 157.342 282.843 156.985 282.433C156.628 282.013 156.103 281.803 155.41 281.803C154.759 281.803 154.234 282.013 153.835 282.433C153.436 282.843 153.236 283.415 153.236 284.15V288.513C153.236 288.618 153.205 288.707 153.142 288.78C153.079 288.843 152.989 288.875 152.874 288.875H152.086ZM165.529 288.875C165.424 288.875 165.335 288.843 165.261 288.78C165.198 288.707 165.167 288.618 165.167 288.513V281.063C165.167 280.958 165.198 280.869 165.261 280.795C165.335 280.722 165.424 280.685 165.529 280.685H166.253C166.358 280.685 166.448 280.722 166.521 280.795C166.595 280.869 166.631 280.958 166.631 281.063V281.756C166.841 281.399 167.13 281.131 167.498 280.953C167.865 280.774 168.306 280.685 168.821 280.685H169.451C169.556 280.685 169.64 280.722 169.703 280.795C169.766 280.858 169.797 280.942 169.797 281.047V281.693C169.797 281.798 169.766 281.882 169.703 281.945C169.64 282.008 169.556 282.039 169.451 282.039H168.506C167.939 282.039 167.492 282.207 167.167 282.543C166.841 282.869 166.679 283.315 166.679 283.882V288.513C166.679 288.618 166.642 288.707 166.568 288.78C166.495 288.843 166.406 288.875 166.301 288.875H165.529ZM174.256 289.033C173.175 289.033 172.314 288.702 171.673 288.04C171.033 287.368 170.681 286.455 170.618 285.3C170.608 285.163 170.602 284.99 170.602 284.78C170.602 284.559 170.608 284.381 170.618 284.245C170.66 283.499 170.833 282.848 171.138 282.291C171.442 281.724 171.857 281.289 172.382 280.984C172.918 280.68 173.542 280.527 174.256 280.527C175.054 280.527 175.721 280.695 176.257 281.031C176.803 281.367 177.217 281.845 177.501 282.465C177.784 283.084 177.926 283.809 177.926 284.638V284.906C177.926 285.021 177.889 285.111 177.816 285.174C177.753 285.237 177.669 285.268 177.564 285.268H172.114C172.114 285.279 172.114 285.3 172.114 285.331C172.114 285.363 172.114 285.389 172.114 285.41C172.135 285.84 172.23 286.245 172.398 286.623C172.566 286.99 172.807 287.289 173.122 287.52C173.437 287.751 173.815 287.867 174.256 287.867C174.634 287.867 174.949 287.809 175.201 287.694C175.453 287.578 175.658 287.452 175.816 287.316C175.973 287.169 176.078 287.058 176.131 286.985C176.225 286.848 176.299 286.77 176.351 286.749C176.404 286.717 176.488 286.701 176.603 286.701H177.359C177.464 286.701 177.548 286.733 177.611 286.796C177.685 286.848 177.716 286.927 177.706 287.032C177.695 287.19 177.611 287.384 177.454 287.615C177.296 287.835 177.07 288.056 176.776 288.276C176.482 288.497 176.125 288.681 175.705 288.828C175.285 288.964 174.802 289.033 174.256 289.033ZM172.114 284.181H176.43V284.134C176.43 283.662 176.341 283.242 176.162 282.874C175.994 282.507 175.747 282.218 175.422 282.008C175.096 281.787 174.708 281.677 174.256 281.677C173.805 281.677 173.416 281.787 173.091 282.008C172.776 282.218 172.534 282.507 172.366 282.874C172.198 283.242 172.114 283.662 172.114 284.134V284.181ZM180.914 288.875C180.809 288.875 180.719 288.843 180.646 288.78C180.583 288.707 180.551 288.618 180.551 288.513V281.945H179.213C179.108 281.945 179.018 281.913 178.945 281.85C178.882 281.777 178.85 281.688 178.85 281.583V281.047C178.85 280.942 178.882 280.858 178.945 280.795C179.018 280.722 179.108 280.685 179.213 280.685H180.551V279.897C180.551 279.362 180.641 278.895 180.819 278.496C180.998 278.086 181.281 277.771 181.67 277.551C182.069 277.33 182.599 277.22 183.26 277.22H184.205C184.31 277.22 184.394 277.257 184.457 277.33C184.52 277.393 184.552 277.477 184.552 277.582V278.118C184.552 278.223 184.52 278.312 184.457 278.385C184.394 278.448 184.31 278.48 184.205 278.48H183.292C182.798 278.48 182.462 278.611 182.284 278.874C182.105 279.126 182.016 279.493 182.016 279.976V280.685H184.048C184.153 280.685 184.237 280.722 184.3 280.795C184.363 280.858 184.394 280.942 184.394 281.047V281.583C184.394 281.688 184.363 281.777 184.3 281.85C184.237 281.913 184.153 281.945 184.048 281.945H182.016V288.513C182.016 288.618 181.979 288.707 181.906 288.78C181.843 288.843 181.759 288.875 181.654 288.875H180.914ZM188.848 289.033C188.176 289.033 187.604 288.886 187.131 288.591C186.669 288.287 186.317 287.867 186.076 287.331C185.834 286.796 185.714 286.182 185.714 285.489V281.047C185.714 280.942 185.745 280.858 185.808 280.795C185.882 280.722 185.971 280.685 186.076 280.685H186.863C186.968 280.685 187.052 280.722 187.115 280.795C187.189 280.858 187.226 280.942 187.226 281.047V285.41C187.226 286.974 187.908 287.757 189.273 287.757C189.924 287.757 190.444 287.552 190.832 287.142C191.231 286.722 191.431 286.145 191.431 285.41V281.047C191.431 280.942 191.462 280.858 191.525 280.795C191.599 280.722 191.688 280.685 191.793 280.685H192.565C192.68 280.685 192.77 280.722 192.833 280.795C192.896 280.858 192.927 280.942 192.927 281.047V288.513C192.927 288.618 192.896 288.707 192.833 288.78C192.77 288.843 192.68 288.875 192.565 288.875H191.84C191.735 288.875 191.646 288.843 191.573 288.78C191.51 288.707 191.478 288.618 191.478 288.513V287.82C191.195 288.187 190.848 288.481 190.439 288.702C190.04 288.922 189.509 289.033 188.848 289.033ZM195.629 288.875C195.524 288.875 195.435 288.843 195.362 288.78C195.299 288.707 195.267 288.618 195.267 288.513V281.047C195.267 280.942 195.299 280.858 195.362 280.795C195.435 280.722 195.524 280.685 195.629 280.685H196.37C196.475 280.685 196.559 280.722 196.622 280.795C196.695 280.858 196.732 280.942 196.732 281.047V281.74C197.005 281.383 197.346 281.094 197.756 280.874C198.176 280.643 198.711 280.527 199.362 280.527C200.045 280.527 200.622 280.68 201.095 280.984C201.578 281.278 201.94 281.693 202.181 282.228C202.423 282.753 202.544 283.368 202.544 284.071V288.513C202.544 288.618 202.512 288.707 202.449 288.78C202.386 288.843 202.302 288.875 202.197 288.875H201.41C201.305 288.875 201.215 288.843 201.142 288.78C201.079 288.707 201.047 288.618 201.047 288.513V284.15C201.047 283.415 200.869 282.843 200.512 282.433C200.155 282.013 199.63 281.803 198.937 281.803C198.286 281.803 197.761 282.013 197.362 282.433C196.973 282.843 196.779 283.415 196.779 284.15V288.513C196.779 288.618 196.742 288.707 196.669 288.78C196.606 288.843 196.522 288.875 196.417 288.875H195.629ZM207.811 289.033C207.234 289.033 206.735 288.933 206.315 288.733C205.895 288.523 205.548 288.245 205.275 287.898C205.013 287.541 204.813 287.137 204.677 286.686C204.551 286.234 204.477 285.756 204.456 285.252C204.446 285.084 204.441 284.927 204.441 284.78C204.441 284.633 204.446 284.475 204.456 284.307C204.477 283.814 204.551 283.341 204.677 282.89C204.813 282.438 205.013 282.034 205.275 281.677C205.548 281.32 205.895 281.042 206.315 280.842C206.735 280.632 207.234 280.527 207.811 280.527C208.431 280.527 208.945 280.638 209.355 280.858C209.764 281.079 210.1 281.352 210.363 281.677V278.055C210.363 277.95 210.394 277.866 210.457 277.803C210.531 277.729 210.62 277.692 210.725 277.692H211.481C211.586 277.692 211.67 277.729 211.733 277.803C211.806 277.866 211.843 277.95 211.843 278.055V288.513C211.843 288.618 211.806 288.707 211.733 288.78C211.67 288.843 211.586 288.875 211.481 288.875H210.772C210.657 288.875 210.567 288.843 210.504 288.78C210.441 288.707 210.41 288.618 210.41 288.513V287.851C210.147 288.187 209.806 288.471 209.386 288.702C208.966 288.922 208.441 289.033 207.811 289.033ZM208.142 287.757C208.667 287.757 209.087 287.636 209.402 287.394C209.717 287.153 209.953 286.848 210.111 286.481C210.268 286.103 210.352 285.72 210.363 285.331C210.373 285.163 210.378 284.964 210.378 284.733C210.378 284.491 210.373 284.286 210.363 284.118C210.352 283.751 210.263 283.389 210.095 283.032C209.937 282.675 209.696 282.381 209.37 282.15C209.055 281.919 208.646 281.803 208.142 281.803C207.606 281.803 207.181 281.924 206.866 282.165C206.551 282.396 206.325 282.706 206.189 283.095C206.052 283.473 205.974 283.882 205.953 284.323C205.942 284.628 205.942 284.932 205.953 285.237C205.974 285.678 206.052 286.092 206.189 286.481C206.325 286.859 206.551 287.169 206.866 287.41C207.181 287.641 207.606 287.757 208.142 287.757Z" fill="#282828" fill-opacity="0.3"/>
<rect x="113.875" y="301.125" width="329" height="26" rx="13" fill="#F5F5F5"/>
</g>
<rect x="395.5" y="18.5" width="103" height="103" rx="51.5" fill="#FFF5EF"/>
<rect x="395.5" y="18.5" width="103" height="103" rx="51.5" stroke="#FE7624"/>
<path d="M446.999 95.0832C445.179 95.0832 443.405 94.1498 442.192 92.5165L439.835 89.3665C439.345 88.7132 438.692 88.3398 437.992 88.2932C437.292 88.2698 436.592 88.5732 436.032 89.1565C432.672 92.7498 430.082 92.4698 428.845 91.9798C427.585 91.4898 425.462 89.8798 425.462 84.6998V58.4265C425.462 48.0665 428.449 44.9165 438.225 44.9165H455.865C465.642 44.9165 468.629 48.0665 468.629 58.4265V84.6998C468.629 89.8565 466.505 91.4665 465.245 91.9798C464.009 92.4698 461.442 92.7498 458.059 89.1565C457.499 88.5498 456.799 88.2465 456.075 88.2932C455.375 88.3398 454.699 88.7132 454.209 89.3665L451.852 92.5165C450.592 94.1498 448.819 95.0832 446.999 95.0832ZM437.852 84.7698C437.945 84.7698 438.062 84.7698 438.155 84.7698C439.882 84.8632 441.515 85.7732 442.612 87.2432L444.969 90.3932C446.112 91.9098 447.862 91.9098 449.005 90.3932L451.362 87.2432C452.482 85.7732 454.092 84.8632 455.842 84.7698C457.592 84.6765 459.295 85.3998 460.555 86.7532C462.329 88.6432 463.472 88.8765 463.892 88.7132C464.452 88.4798 465.059 87.1265 465.059 84.6998V58.4265C465.059 50.0032 463.589 48.4165 455.795 48.4165H438.155C430.362 48.4165 428.892 50.0032 428.892 58.4265V84.6998C428.892 87.1498 429.499 88.5032 430.059 88.7132C430.455 88.8765 431.622 88.6432 433.395 86.7532C434.679 85.4698 436.242 84.7698 437.852 84.7698Z" fill="#FE7624"/>
<path d="M453.417 67.0835H440.583C439.627 67.0835 438.833 66.2902 438.833 65.3335C438.833 64.3768 439.627 63.5835 440.583 63.5835H453.417C454.373 63.5835 455.167 64.3768 455.167 65.3335C455.167 66.2902 454.373 67.0835 453.417 67.0835Z" fill="#FE7624"/>
</g>
<defs>
<filter id="filter0_d_1182_2638" x="5" y="-43" width="595.188" height="544" filterUnits="userSpaceOnUse" color-interpolation-filters="sRGB">
<feFlood flood-opacity="0" result="BackgroundImageFix"/>
<feColorMatrix in="SourceAlpha" type="matrix" values="0 0 0 0 0 0 0 0 0 0 0 0 0 0 0 0 0 0 127 0" result="hardAlpha"/>
<feOffset dx="24" dy="23"/>
<feGaussianBlur stdDeviation="52"/>
<feComposite in2="hardAlpha" operator="out"/>
<feColorMatrix type="matrix" values="0 0 0 0 0 0 0 0 0 0 0 0 0 0 0 0 0 0 0.01 0"/>
<feBlend mode="normal" in2="BackgroundImageFix" result="effect1_dropShadow_1182_2638"/>
<feBlend mode="normal" in="SourceGraphic" in2="effect1_dropShadow_1182_2638" result="shape"/>
</filter>
<linearGradient id="paint0_linear_1182_2638" x1="279.248" y1="206" x2="279.248" y2="459.511" gradientUnits="userSpaceOnUse">
<stop stop-color="#017F83" stop-opacity="0"/>
<stop offset="0.461538" stop-color="#017F83" stop-opacity="0.0415385"/>
<stop offset="1" stop-color="#017F83" stop-opacity="0.09"/>
</linearGradient>
<clipPath id="clip0_1182_2638">
<rect width="558" height="412" rx="24" fill="white"/>
</clipPath>
</defs>
</svg>
