<svg width="558" height="412" viewBox="0 0 558 412" fill="none" xmlns="http://www.w3.org/2000/svg">
<g clip-path="url(#clip0_1182_2584)">
<rect width="558" height="412" fill="white"/>
<rect width="558" height="412" fill="url(#paint0_linear_1182_2584)"/>
<g filter="url(#filter0_d_1182_2584)">
<rect width="387.188" height="336" transform="translate(84.9062 78)" fill="white"/>
<path d="M116.669 133.875C116.476 133.875 116.328 133.822 116.223 133.717C116.118 133.595 116.065 133.446 116.065 133.271V116.13C116.065 115.937 116.118 115.789 116.223 115.684C116.328 115.561 116.476 115.5 116.669 115.5H117.876C118.086 115.5 118.244 115.552 118.349 115.657C118.454 115.745 118.515 115.815 118.533 115.867L127.248 129.255V116.13C127.248 115.937 127.3 115.789 127.405 115.684C127.51 115.561 127.659 115.5 127.851 115.5H129.111C129.304 115.5 129.453 115.561 129.558 115.684C129.68 115.789 129.741 115.937 129.741 116.13V133.245C129.741 133.42 129.68 133.569 129.558 133.691C129.453 133.814 129.313 133.875 129.138 133.875H127.878C127.685 133.875 127.536 133.822 127.431 133.717C127.344 133.612 127.283 133.542 127.248 133.507L118.559 120.251V133.271C118.559 133.446 118.498 133.595 118.375 133.717C118.27 133.822 118.121 133.875 117.929 133.875H116.669ZM139.541 134.138C138.211 134.138 137.1 133.884 136.208 133.376C135.315 132.869 134.633 132.169 134.16 131.276C133.688 130.366 133.425 129.334 133.373 128.179C133.355 127.881 133.346 127.505 133.346 127.05C133.346 126.577 133.355 126.201 133.373 125.921C133.425 124.749 133.688 123.716 134.16 122.824C134.65 121.931 135.341 121.231 136.234 120.724C137.126 120.216 138.229 119.962 139.541 119.962C140.854 119.962 141.956 120.216 142.849 120.724C143.741 121.231 144.424 121.931 144.896 122.824C145.386 123.716 145.658 124.749 145.71 125.921C145.728 126.201 145.736 126.577 145.736 127.05C145.736 127.505 145.728 127.881 145.71 128.179C145.658 129.334 145.395 130.366 144.923 131.276C144.45 132.169 143.768 132.869 142.875 133.376C141.983 133.884 140.871 134.138 139.541 134.138ZM139.541 132.116C140.626 132.116 141.493 131.775 142.14 131.092C142.788 130.392 143.138 129.377 143.19 128.047C143.208 127.785 143.216 127.452 143.216 127.05C143.216 126.647 143.208 126.315 143.19 126.052C143.138 124.722 142.788 123.716 142.14 123.034C141.493 122.334 140.626 121.984 139.541 121.984C138.456 121.984 137.581 122.334 136.916 123.034C136.269 123.716 135.928 124.722 135.893 126.052C135.875 126.315 135.866 126.647 135.866 127.05C135.866 127.452 135.875 127.785 135.893 128.047C135.928 129.377 136.269 130.392 136.916 131.092C137.581 131.775 138.456 132.116 139.541 132.116ZM156.088 133.875C155.913 133.875 155.764 133.822 155.641 133.717C155.536 133.595 155.484 133.446 155.484 133.271V115.841C155.484 115.666 155.536 115.526 155.641 115.421C155.764 115.299 155.913 115.237 156.088 115.237H157.321C157.514 115.237 157.663 115.299 157.768 115.421C157.873 115.526 157.925 115.666 157.925 115.841V133.271C157.925 133.446 157.873 133.595 157.768 133.717C157.663 133.822 157.514 133.875 157.321 133.875H156.088ZM167.432 134.138C166.102 134.138 164.991 133.884 164.098 133.376C163.206 132.869 162.523 132.169 162.051 131.276C161.578 130.366 161.316 129.334 161.263 128.179C161.246 127.881 161.237 127.505 161.237 127.05C161.237 126.577 161.246 126.201 161.263 125.921C161.316 124.749 161.578 123.716 162.051 122.824C162.541 121.931 163.232 121.231 164.124 120.724C165.017 120.216 166.119 119.962 167.432 119.962C168.744 119.962 169.847 120.216 170.739 120.724C171.632 121.231 172.314 121.931 172.787 122.824C173.277 123.716 173.548 124.749 173.601 125.921C173.618 126.201 173.627 126.577 173.627 127.05C173.627 127.505 173.618 127.881 173.601 128.179C173.548 129.334 173.286 130.366 172.813 131.276C172.341 132.169 171.658 132.869 170.766 133.376C169.873 133.884 168.762 134.138 167.432 134.138ZM167.432 132.116C168.517 132.116 169.383 131.775 170.031 131.092C170.678 130.392 171.028 129.377 171.081 128.047C171.098 127.785 171.107 127.452 171.107 127.05C171.107 126.647 171.098 126.315 171.081 126.052C171.028 124.722 170.678 123.716 170.031 123.034C169.383 122.334 168.517 121.984 167.432 121.984C166.347 121.984 165.472 122.334 164.807 123.034C164.159 123.716 163.818 124.722 163.783 126.052C163.766 126.315 163.757 126.647 163.757 127.05C163.757 127.452 163.766 127.785 163.783 128.047C163.818 129.377 164.159 130.392 164.807 131.092C165.472 131.775 166.347 132.116 167.432 132.116ZM182.505 139.65C181.315 139.65 180.335 139.493 179.565 139.178C178.813 138.863 178.218 138.478 177.78 138.023C177.36 137.585 177.054 137.139 176.861 136.684C176.686 136.246 176.59 135.896 176.573 135.634C176.555 135.459 176.608 135.31 176.73 135.188C176.87 135.065 177.019 135.004 177.176 135.004H178.436C178.594 135.004 178.725 135.039 178.83 135.109C178.935 135.179 179.023 135.328 179.093 135.555C179.198 135.818 179.355 136.106 179.565 136.421C179.775 136.754 180.099 137.034 180.536 137.261C180.974 137.506 181.586 137.629 182.374 137.629C183.196 137.629 183.888 137.515 184.448 137.288C185.008 137.078 185.428 136.693 185.708 136.133C186.005 135.59 186.154 134.838 186.154 133.875V132.09C185.734 132.632 185.183 133.087 184.5 133.455C183.818 133.805 182.96 133.98 181.928 133.98C180.948 133.98 180.108 133.814 179.408 133.481C178.708 133.131 178.13 132.667 177.675 132.09C177.238 131.495 176.905 130.821 176.678 130.069C176.468 129.316 176.345 128.529 176.31 127.706C176.293 127.216 176.293 126.735 176.31 126.262C176.345 125.44 176.468 124.652 176.678 123.9C176.905 123.147 177.238 122.474 177.675 121.879C178.13 121.284 178.708 120.82 179.408 120.487C180.108 120.137 180.948 119.962 181.928 119.962C182.978 119.962 183.844 120.164 184.526 120.566C185.226 120.951 185.795 121.424 186.233 121.984V120.855C186.233 120.68 186.285 120.531 186.39 120.409C186.513 120.286 186.661 120.225 186.836 120.225H188.044C188.219 120.225 188.368 120.286 188.49 120.409C188.613 120.531 188.674 120.68 188.674 120.855V133.586C188.674 134.759 188.473 135.8 188.07 136.71C187.685 137.62 187.038 138.338 186.128 138.863C185.235 139.388 184.028 139.65 182.505 139.65ZM182.453 131.88C183.328 131.88 184.028 131.679 184.553 131.276C185.095 130.874 185.489 130.366 185.734 129.754C185.996 129.141 186.136 128.52 186.154 127.89C186.171 127.645 186.18 127.347 186.18 126.997C186.18 126.63 186.171 126.324 186.154 126.079C186.136 125.449 185.996 124.827 185.734 124.215C185.489 123.602 185.095 123.095 184.553 122.692C184.028 122.29 183.328 122.089 182.453 122.089C181.578 122.089 180.878 122.29 180.353 122.692C179.828 123.077 179.451 123.594 179.224 124.241C178.996 124.871 178.865 125.554 178.83 126.289C178.813 126.744 178.813 127.207 178.83 127.68C178.865 128.415 178.996 129.106 179.224 129.754C179.451 130.384 179.828 130.9 180.353 131.302C180.878 131.687 181.578 131.88 182.453 131.88ZM193.181 133.875C193.006 133.875 192.857 133.822 192.734 133.717C192.629 133.595 192.577 133.446 192.577 133.271V120.829C192.577 120.654 192.629 120.514 192.734 120.409C192.857 120.286 193.006 120.225 193.181 120.225H194.441C194.616 120.225 194.756 120.286 194.861 120.409C194.966 120.514 195.018 120.654 195.018 120.829V133.271C195.018 133.446 194.966 133.595 194.861 133.717C194.756 133.822 194.616 133.875 194.441 133.875H193.181ZM192.971 117.679C192.796 117.679 192.647 117.626 192.524 117.521C192.419 117.399 192.367 117.25 192.367 117.075V115.657C192.367 115.482 192.419 115.342 192.524 115.237C192.647 115.115 192.796 115.054 192.971 115.054H194.624C194.799 115.054 194.939 115.115 195.044 115.237C195.167 115.342 195.228 115.482 195.228 115.657V117.075C195.228 117.25 195.167 117.399 195.044 117.521C194.939 117.626 194.799 117.679 194.624 117.679H192.971ZM199.538 133.875C199.363 133.875 199.214 133.822 199.092 133.717C198.987 133.595 198.934 133.446 198.934 133.271V120.829C198.934 120.654 198.987 120.514 199.092 120.409C199.214 120.286 199.363 120.225 199.538 120.225H200.772C200.947 120.225 201.087 120.286 201.192 120.409C201.314 120.514 201.375 120.654 201.375 120.829V121.984C201.83 121.389 202.399 120.907 203.082 120.54C203.782 120.155 204.674 119.962 205.759 119.962C206.897 119.962 207.859 120.216 208.647 120.724C209.452 121.214 210.055 121.905 210.458 122.797C210.86 123.672 211.062 124.696 211.062 125.869V133.271C211.062 133.446 211.009 133.595 210.904 133.717C210.799 133.822 210.659 133.875 210.484 133.875H209.172C208.997 133.875 208.848 133.822 208.725 133.717C208.62 133.595 208.568 133.446 208.568 133.271V126C208.568 124.775 208.27 123.821 207.675 123.139C207.08 122.439 206.205 122.089 205.05 122.089C203.965 122.089 203.09 122.439 202.425 123.139C201.778 123.821 201.454 124.775 201.454 126V133.271C201.454 133.446 201.393 133.595 201.27 133.717C201.165 133.822 201.025 133.875 200.85 133.875H199.538ZM219.578 134.138C218.598 134.138 217.758 134.015 217.058 133.77C216.358 133.525 215.79 133.227 215.352 132.877C214.915 132.527 214.582 132.177 214.355 131.827C214.145 131.477 214.031 131.197 214.013 130.987C213.996 130.795 214.057 130.646 214.197 130.541C214.337 130.436 214.477 130.384 214.617 130.384H215.772C215.877 130.384 215.956 130.401 216.008 130.436C216.078 130.454 216.166 130.524 216.271 130.646C216.498 130.891 216.752 131.136 217.032 131.381C217.312 131.626 217.653 131.827 218.056 131.985C218.476 132.142 218.992 132.221 219.605 132.221C220.497 132.221 221.232 132.055 221.81 131.722C222.387 131.372 222.676 130.865 222.676 130.2C222.676 129.762 222.553 129.412 222.308 129.15C222.081 128.887 221.661 128.651 221.048 128.441C220.453 128.231 219.631 128.012 218.581 127.785C217.531 127.54 216.7 127.242 216.087 126.892C215.475 126.525 215.037 126.096 214.775 125.606C214.512 125.099 214.381 124.53 214.381 123.9C214.381 123.252 214.573 122.631 214.958 122.036C215.343 121.424 215.903 120.925 216.638 120.54C217.391 120.155 218.327 119.962 219.447 119.962C220.357 119.962 221.136 120.076 221.783 120.304C222.431 120.531 222.965 120.82 223.385 121.17C223.805 121.502 224.12 121.835 224.33 122.167C224.54 122.5 224.653 122.78 224.671 123.007C224.688 123.182 224.636 123.331 224.513 123.454C224.391 123.559 224.251 123.611 224.093 123.611H222.991C222.868 123.611 222.763 123.585 222.676 123.532C222.606 123.48 222.536 123.419 222.466 123.349C222.291 123.121 222.081 122.894 221.836 122.666C221.608 122.439 221.302 122.255 220.917 122.115C220.55 121.957 220.06 121.879 219.447 121.879C218.572 121.879 217.916 122.062 217.478 122.43C217.041 122.797 216.822 123.261 216.822 123.821C216.822 124.154 216.918 124.451 217.111 124.714C217.303 124.976 217.671 125.212 218.213 125.422C218.756 125.632 219.561 125.86 220.628 126.105C221.783 126.332 222.693 126.639 223.358 127.024C224.023 127.409 224.496 127.855 224.776 128.362C225.056 128.87 225.196 129.456 225.196 130.121C225.196 130.856 224.977 131.53 224.54 132.143C224.12 132.755 223.49 133.245 222.65 133.612C221.827 133.963 220.803 134.138 219.578 134.138ZM235.273 133.875C235.098 133.875 234.949 133.822 234.827 133.717C234.722 133.595 234.669 133.446 234.669 133.271V120.855C234.669 120.68 234.722 120.531 234.827 120.409C234.949 120.286 235.098 120.225 235.273 120.225H236.48C236.655 120.225 236.804 120.286 236.927 120.409C237.049 120.531 237.11 120.68 237.11 120.855V122.01C237.46 121.415 237.942 120.969 238.554 120.671C239.167 120.374 239.902 120.225 240.759 120.225H241.809C241.984 120.225 242.124 120.286 242.229 120.409C242.334 120.514 242.387 120.654 242.387 120.829V121.905C242.387 122.08 242.334 122.22 242.229 122.325C242.124 122.43 241.984 122.482 241.809 122.482H240.234C239.289 122.482 238.545 122.762 238.003 123.322C237.46 123.865 237.189 124.609 237.189 125.554V133.271C237.189 133.446 237.128 133.595 237.005 133.717C236.883 133.822 236.734 133.875 236.559 133.875H235.273ZM249.818 134.138C248.016 134.138 246.581 133.586 245.513 132.484C244.446 131.364 243.86 129.841 243.755 127.916C243.737 127.689 243.728 127.4 243.728 127.05C243.728 126.682 243.737 126.385 243.755 126.158C243.825 124.915 244.113 123.83 244.621 122.902C245.128 121.957 245.82 121.231 246.695 120.724C247.587 120.216 248.628 119.962 249.818 119.962C251.148 119.962 252.26 120.242 253.152 120.802C254.062 121.362 254.753 122.159 255.226 123.191C255.698 124.224 255.935 125.431 255.935 126.814V127.26C255.935 127.452 255.873 127.601 255.751 127.706C255.646 127.811 255.506 127.864 255.331 127.864H246.248C246.248 127.881 246.248 127.916 246.248 127.969C246.248 128.021 246.248 128.065 246.248 128.1C246.283 128.817 246.441 129.491 246.721 130.121C247.001 130.734 247.403 131.232 247.928 131.617C248.453 132.002 249.083 132.195 249.818 132.195C250.448 132.195 250.973 132.099 251.393 131.906C251.813 131.714 252.155 131.504 252.417 131.276C252.68 131.031 252.855 130.847 252.942 130.725C253.1 130.497 253.222 130.366 253.31 130.331C253.397 130.279 253.537 130.252 253.73 130.252H254.99C255.165 130.252 255.305 130.305 255.41 130.41C255.532 130.497 255.585 130.629 255.567 130.804C255.55 131.066 255.41 131.39 255.147 131.775C254.885 132.142 254.508 132.51 254.018 132.877C253.528 133.245 252.933 133.551 252.233 133.796C251.533 134.024 250.728 134.138 249.818 134.138ZM246.248 126.052H253.441V125.974C253.441 125.186 253.292 124.486 252.995 123.874C252.715 123.261 252.303 122.78 251.761 122.43C251.218 122.062 250.571 121.879 249.818 121.879C249.066 121.879 248.418 122.062 247.876 122.43C247.351 122.78 246.948 123.261 246.668 123.874C246.388 124.486 246.248 125.186 246.248 125.974V126.052ZM268.943 138.863C268.751 138.863 268.602 138.801 268.497 138.679C268.392 138.574 268.34 138.434 268.34 138.259V132.169C267.902 132.729 267.333 133.201 266.633 133.586C265.951 133.954 265.102 134.138 264.087 134.138C263.125 134.138 262.293 133.971 261.593 133.639C260.893 133.289 260.316 132.834 259.861 132.274C259.423 131.696 259.091 131.04 258.863 130.305C258.653 129.552 258.531 128.765 258.496 127.942C258.478 127.662 258.47 127.365 258.47 127.05C258.47 126.735 258.478 126.437 258.496 126.158C258.531 125.317 258.653 124.53 258.863 123.795C259.091 123.06 259.423 122.404 259.861 121.826C260.316 121.249 260.893 120.794 261.593 120.461C262.293 120.129 263.125 119.962 264.087 119.962C265.137 119.962 266.012 120.155 266.712 120.54C267.412 120.925 267.972 121.406 268.392 121.984V120.829C268.392 120.654 268.445 120.514 268.55 120.409C268.672 120.286 268.821 120.225 268.996 120.225H270.203C270.378 120.225 270.518 120.286 270.623 120.409C270.746 120.514 270.807 120.654 270.807 120.829V138.259C270.807 138.434 270.746 138.574 270.623 138.679C270.518 138.801 270.378 138.863 270.203 138.863H268.943ZM264.638 132.011C265.478 132.011 266.161 131.819 266.686 131.434C267.228 131.049 267.631 130.559 267.893 129.964C268.173 129.369 268.322 128.765 268.34 128.152C268.357 127.855 268.366 127.514 268.366 127.129C268.366 126.744 268.357 126.411 268.34 126.131C268.322 125.484 268.182 124.854 267.92 124.241C267.657 123.611 267.255 123.095 266.712 122.692C266.187 122.29 265.496 122.089 264.638 122.089C263.746 122.089 263.037 122.29 262.512 122.692C261.987 123.077 261.611 123.594 261.383 124.241C261.156 124.871 261.025 125.554 260.99 126.289C260.972 126.796 260.972 127.304 260.99 127.811C261.025 128.546 261.156 129.237 261.383 129.885C261.611 130.515 261.987 131.031 262.512 131.434C263.037 131.819 263.746 132.011 264.638 132.011ZM279.803 134.138C278.683 134.138 277.729 133.893 276.942 133.402C276.172 132.895 275.586 132.195 275.183 131.302C274.781 130.41 274.579 129.386 274.579 128.231V120.829C274.579 120.654 274.632 120.514 274.737 120.409C274.859 120.286 275.008 120.225 275.183 120.225H276.496C276.671 120.225 276.811 120.286 276.916 120.409C277.038 120.514 277.099 120.654 277.099 120.829V128.1C277.099 130.707 278.237 132.011 280.512 132.011C281.597 132.011 282.463 131.67 283.111 130.987C283.776 130.287 284.108 129.325 284.108 128.1V120.829C284.108 120.654 284.161 120.514 284.266 120.409C284.388 120.286 284.537 120.225 284.712 120.225H285.998C286.191 120.225 286.339 120.286 286.444 120.409C286.549 120.514 286.602 120.654 286.602 120.829V133.271C286.602 133.446 286.549 133.595 286.444 133.717C286.339 133.822 286.191 133.875 285.998 133.875H284.791C284.616 133.875 284.467 133.822 284.344 133.717C284.239 133.595 284.187 133.446 284.187 133.271V132.116C283.714 132.729 283.137 133.219 282.454 133.586C281.789 133.954 280.906 134.138 279.803 134.138ZM291.105 133.875C290.93 133.875 290.782 133.822 290.659 133.717C290.554 133.595 290.502 133.446 290.502 133.271V120.829C290.502 120.654 290.554 120.514 290.659 120.409C290.782 120.286 290.93 120.225 291.105 120.225H292.365C292.54 120.225 292.68 120.286 292.785 120.409C292.89 120.514 292.943 120.654 292.943 120.829V133.271C292.943 133.446 292.89 133.595 292.785 133.717C292.68 133.822 292.54 133.875 292.365 133.875H291.105ZM290.895 117.679C290.72 117.679 290.572 117.626 290.449 117.521C290.344 117.399 290.292 117.25 290.292 117.075V115.657C290.292 115.482 290.344 115.342 290.449 115.237C290.572 115.115 290.72 115.054 290.895 115.054H292.549C292.724 115.054 292.864 115.115 292.969 115.237C293.092 115.342 293.153 115.482 293.153 115.657V117.075C293.153 117.25 293.092 117.399 292.969 117.521C292.864 117.626 292.724 117.679 292.549 117.679H290.895ZM297.463 133.875C297.288 133.875 297.139 133.822 297.017 133.717C296.912 133.595 296.859 133.446 296.859 133.271V120.855C296.859 120.68 296.912 120.531 297.017 120.409C297.139 120.286 297.288 120.225 297.463 120.225H298.67C298.845 120.225 298.994 120.286 299.117 120.409C299.239 120.531 299.3 120.68 299.3 120.855V122.01C299.65 121.415 300.132 120.969 300.744 120.671C301.357 120.374 302.092 120.225 302.949 120.225H303.999C304.174 120.225 304.314 120.286 304.419 120.409C304.524 120.514 304.577 120.654 304.577 120.829V121.905C304.577 122.08 304.524 122.22 304.419 122.325C304.314 122.43 304.174 122.482 303.999 122.482H302.424C301.479 122.482 300.735 122.762 300.193 123.322C299.65 123.865 299.379 124.609 299.379 125.554V133.271C299.379 133.446 299.318 133.595 299.195 133.717C299.073 133.822 298.924 133.875 298.749 133.875H297.463ZM312.008 134.138C310.206 134.138 308.771 133.586 307.703 132.484C306.636 131.364 306.05 129.841 305.945 127.916C305.927 127.689 305.918 127.4 305.918 127.05C305.918 126.682 305.927 126.385 305.945 126.158C306.015 124.915 306.303 123.83 306.811 122.902C307.318 121.957 308.01 121.231 308.885 120.724C309.777 120.216 310.818 119.962 312.008 119.962C313.338 119.962 314.45 120.242 315.342 120.802C316.252 121.362 316.943 122.159 317.416 123.191C317.888 124.224 318.125 125.431 318.125 126.814V127.26C318.125 127.452 318.063 127.601 317.941 127.706C317.836 127.811 317.696 127.864 317.521 127.864H308.438C308.438 127.881 308.438 127.916 308.438 127.969C308.438 128.021 308.438 128.065 308.438 128.1C308.473 128.817 308.631 129.491 308.911 130.121C309.191 130.734 309.593 131.232 310.118 131.617C310.643 132.002 311.273 132.195 312.008 132.195C312.638 132.195 313.163 132.099 313.583 131.906C314.003 131.714 314.345 131.504 314.607 131.276C314.87 131.031 315.045 130.847 315.132 130.725C315.29 130.497 315.412 130.366 315.5 130.331C315.587 130.279 315.727 130.252 315.92 130.252H317.18C317.355 130.252 317.495 130.305 317.6 130.41C317.722 130.497 317.775 130.629 317.757 130.804C317.74 131.066 317.6 131.39 317.337 131.775C317.075 132.142 316.698 132.51 316.208 132.877C315.718 133.245 315.123 133.551 314.423 133.796C313.723 134.024 312.918 134.138 312.008 134.138ZM308.438 126.052H315.631V125.974C315.631 125.186 315.482 124.486 315.185 123.874C314.905 123.261 314.493 122.78 313.951 122.43C313.408 122.062 312.761 121.879 312.008 121.879C311.256 121.879 310.608 122.062 310.066 122.43C309.541 122.78 309.138 123.261 308.858 123.874C308.578 124.486 308.438 125.186 308.438 125.974V126.052ZM326.251 134.138C325.288 134.138 324.457 133.971 323.757 133.639C323.057 133.289 322.48 132.825 322.025 132.247C321.587 131.652 321.255 130.979 321.027 130.226C320.817 129.474 320.695 128.677 320.66 127.837C320.642 127.557 320.633 127.295 320.633 127.05C320.633 126.805 320.642 126.542 320.66 126.262C320.695 125.44 320.817 124.652 321.027 123.9C321.255 123.147 321.587 122.474 322.025 121.879C322.48 121.284 323.057 120.82 323.757 120.487C324.457 120.137 325.288 119.962 326.251 119.962C327.283 119.962 328.141 120.146 328.823 120.514C329.506 120.881 330.066 121.336 330.503 121.879V115.841C330.503 115.666 330.556 115.526 330.661 115.421C330.783 115.299 330.932 115.237 331.107 115.237H332.367C332.542 115.237 332.682 115.299 332.787 115.421C332.91 115.526 332.971 115.666 332.971 115.841V133.271C332.971 133.446 332.91 133.595 332.787 133.717C332.682 133.822 332.542 133.875 332.367 133.875H331.186C330.993 133.875 330.845 133.822 330.74 133.717C330.635 133.595 330.582 133.446 330.582 133.271V132.169C330.145 132.729 329.576 133.201 328.876 133.586C328.176 133.954 327.301 134.138 326.251 134.138ZM326.802 132.011C327.677 132.011 328.377 131.81 328.902 131.407C329.427 131.005 329.821 130.497 330.083 129.885C330.346 129.255 330.486 128.616 330.503 127.969C330.521 127.689 330.53 127.356 330.53 126.971C330.53 126.569 330.521 126.227 330.503 125.947C330.486 125.335 330.337 124.731 330.057 124.136C329.795 123.541 329.392 123.051 328.85 122.666C328.325 122.281 327.642 122.089 326.802 122.089C325.91 122.089 325.201 122.29 324.676 122.692C324.151 123.077 323.775 123.594 323.547 124.241C323.32 124.871 323.188 125.554 323.153 126.289C323.136 126.796 323.136 127.304 323.153 127.811C323.188 128.546 323.32 129.237 323.547 129.885C323.775 130.515 324.151 131.031 324.676 131.434C325.201 131.819 325.91 132.011 326.802 132.011Z" fill="#303030"/>
<path d="M118.695 187.033C117.782 187.033 117.015 186.896 116.396 186.623C115.776 186.339 115.299 185.977 114.963 185.536C114.637 185.085 114.464 184.607 114.443 184.103C114.443 184.019 114.474 183.945 114.537 183.882C114.611 183.809 114.695 183.772 114.789 183.772H115.593C115.719 183.772 115.813 183.804 115.876 183.867C115.939 183.93 115.981 184.003 116.002 184.087C116.055 184.339 116.181 184.591 116.38 184.843C116.59 185.085 116.879 185.289 117.246 185.457C117.624 185.615 118.107 185.694 118.695 185.694C119.598 185.694 120.26 185.536 120.68 185.221C121.11 184.896 121.326 184.465 121.326 183.93C121.326 183.562 121.21 183.268 120.979 183.048C120.759 182.817 120.417 182.612 119.955 182.433C119.493 182.255 118.895 182.061 118.16 181.851C117.393 181.63 116.758 181.389 116.254 181.126C115.75 180.864 115.372 180.538 115.12 180.15C114.879 179.761 114.758 179.268 114.758 178.669C114.758 178.102 114.91 177.598 115.215 177.157C115.519 176.706 115.955 176.349 116.522 176.086C117.099 175.824 117.798 175.692 118.617 175.692C119.268 175.692 119.835 175.782 120.318 175.96C120.811 176.128 121.221 176.359 121.546 176.653C121.872 176.937 122.118 177.246 122.286 177.582C122.454 177.908 122.544 178.228 122.554 178.543C122.554 178.617 122.528 178.69 122.475 178.764C122.423 178.827 122.339 178.858 122.223 178.858H121.389C121.315 178.858 121.236 178.837 121.152 178.795C121.079 178.753 121.021 178.674 120.979 178.559C120.916 178.128 120.675 177.766 120.255 177.472C119.835 177.178 119.289 177.031 118.617 177.031C117.934 177.031 117.378 177.162 116.947 177.425C116.527 177.687 116.317 178.097 116.317 178.653C116.317 179.01 116.417 179.31 116.616 179.551C116.816 179.782 117.131 179.987 117.561 180.165C117.992 180.344 118.554 180.533 119.247 180.732C120.087 180.963 120.774 181.21 121.31 181.473C121.845 181.725 122.239 182.045 122.491 182.433C122.754 182.811 122.885 183.3 122.885 183.898C122.885 184.56 122.712 185.127 122.365 185.599C122.019 186.061 121.53 186.418 120.9 186.67C120.281 186.912 119.546 187.033 118.695 187.033ZM129.107 187.033C128.225 187.033 127.464 186.875 126.823 186.56C126.193 186.245 125.705 185.767 125.359 185.127C125.023 184.476 124.855 183.641 124.855 182.622V176.228C124.855 176.112 124.886 176.023 124.949 175.96C125.012 175.887 125.101 175.85 125.217 175.85H126.02C126.136 175.85 126.225 175.887 126.288 175.96C126.361 176.023 126.398 176.112 126.398 176.228V182.654C126.398 183.683 126.64 184.444 127.123 184.938C127.606 185.431 128.267 185.678 129.107 185.678C129.937 185.678 130.593 185.431 131.076 184.938C131.569 184.444 131.816 183.683 131.816 182.654V176.228C131.816 176.112 131.848 176.023 131.911 175.96C131.984 175.887 132.073 175.85 132.178 175.85H132.997C133.102 175.85 133.186 175.887 133.249 175.96C133.323 176.023 133.36 176.112 133.36 176.228V182.622C133.36 183.641 133.186 184.476 132.84 185.127C132.504 185.767 132.021 186.245 131.391 186.56C130.761 186.875 130 187.033 129.107 187.033ZM136.355 186.875C136.239 186.875 136.15 186.843 136.087 186.78C136.024 186.707 135.993 186.618 135.993 186.513V176.212C135.993 176.107 136.024 176.023 136.087 175.96C136.15 175.887 136.239 175.85 136.355 175.85H137.19C137.295 175.85 137.379 175.887 137.442 175.96C137.515 176.023 137.552 176.107 137.552 176.212V186.513C137.552 186.618 137.515 186.707 137.442 186.78C137.379 186.843 137.295 186.875 137.19 186.875H136.355ZM145.772 186.875C145.636 186.875 145.525 186.838 145.441 186.765C145.368 186.691 145.315 186.586 145.284 186.45L143.252 176.338C143.242 176.296 143.236 176.259 143.236 176.228C143.236 176.196 143.236 176.175 143.236 176.165C143.236 176.081 143.268 176.007 143.331 175.944C143.394 175.881 143.467 175.85 143.551 175.85H144.37C144.591 175.85 144.717 175.939 144.748 176.118L146.355 184.245L148.056 178.669C148.087 178.575 148.14 178.491 148.213 178.417C148.297 178.333 148.413 178.291 148.56 178.291H149.143C149.3 178.291 149.416 178.333 149.489 178.417C149.563 178.491 149.61 178.575 149.631 178.669L151.348 184.245L152.938 176.118C152.97 175.939 153.101 175.85 153.332 175.85H154.151C154.235 175.85 154.309 175.881 154.372 175.944C154.435 176.007 154.466 176.081 154.466 176.165C154.466 176.175 154.461 176.196 154.45 176.228C154.45 176.259 154.45 176.296 154.45 176.338L152.419 186.45C152.387 186.586 152.329 186.691 152.245 186.765C152.172 186.838 152.067 186.875 151.93 186.875H151.316C151.169 186.875 151.054 186.838 150.97 186.765C150.886 186.691 150.828 186.597 150.796 186.481L148.843 180.48L146.906 186.481C146.864 186.597 146.801 186.691 146.717 186.765C146.644 186.838 146.533 186.875 146.386 186.875H145.772ZM158.251 187.033C157.726 187.033 157.249 186.928 156.818 186.717C156.388 186.507 156.041 186.224 155.779 185.867C155.516 185.51 155.385 185.106 155.385 184.654C155.385 183.93 155.679 183.352 156.267 182.922C156.855 182.491 157.621 182.208 158.566 182.071L160.913 181.74V181.284C160.913 180.78 160.766 180.386 160.472 180.102C160.189 179.819 159.721 179.677 159.07 179.677C158.598 179.677 158.215 179.772 157.921 179.961C157.637 180.15 157.438 180.391 157.322 180.685C157.259 180.843 157.149 180.921 156.991 180.921H156.283C156.167 180.921 156.078 180.89 156.015 180.827C155.962 180.753 155.936 180.669 155.936 180.575C155.936 180.417 155.994 180.223 156.109 179.992C156.235 179.761 156.424 179.535 156.676 179.315C156.928 179.094 157.249 178.911 157.637 178.764C158.036 178.606 158.519 178.527 159.086 178.527C159.716 178.527 160.246 178.611 160.677 178.78C161.107 178.937 161.443 179.152 161.685 179.425C161.937 179.698 162.115 180.008 162.22 180.354C162.336 180.701 162.394 181.053 162.394 181.41V186.513C162.394 186.618 162.357 186.707 162.283 186.78C162.22 186.843 162.136 186.875 162.031 186.875H161.307C161.191 186.875 161.102 186.843 161.039 186.78C160.976 186.707 160.945 186.618 160.945 186.513V185.836C160.808 186.024 160.624 186.213 160.393 186.402C160.162 186.581 159.874 186.733 159.527 186.859C159.181 186.975 158.755 187.033 158.251 187.033ZM158.582 185.851C159.013 185.851 159.406 185.762 159.763 185.583C160.12 185.394 160.399 185.106 160.598 184.717C160.808 184.329 160.913 183.84 160.913 183.252V182.811L159.086 183.079C158.341 183.184 157.779 183.363 157.401 183.615C157.023 183.856 156.834 184.166 156.834 184.544C156.834 184.838 156.918 185.085 157.086 185.284C157.264 185.473 157.485 185.615 157.747 185.709C158.02 185.804 158.299 185.851 158.582 185.851ZM165.036 186.875C164.931 186.875 164.841 186.843 164.768 186.78C164.705 186.707 164.673 186.618 164.673 186.513V176.055C164.673 175.95 164.705 175.866 164.768 175.803C164.841 175.729 164.931 175.692 165.036 175.692H165.776C165.891 175.692 165.981 175.729 166.044 175.803C166.107 175.866 166.138 175.95 166.138 176.055V186.513C166.138 186.618 166.107 186.707 166.044 186.78C165.981 186.843 165.891 186.875 165.776 186.875H165.036ZM168.866 186.875C168.761 186.875 168.671 186.843 168.598 186.78C168.535 186.707 168.503 186.618 168.503 186.513V176.055C168.503 175.95 168.535 175.866 168.598 175.803C168.671 175.729 168.761 175.692 168.866 175.692H169.606C169.721 175.692 169.811 175.729 169.874 175.803C169.937 175.866 169.968 175.95 169.968 176.055V186.513C169.968 186.618 169.937 186.707 169.874 186.78C169.811 186.843 169.721 186.875 169.606 186.875H168.866ZM175.578 187.033C174.496 187.033 173.635 186.702 172.995 186.04C172.354 185.368 172.002 184.455 171.939 183.3C171.929 183.163 171.924 182.99 171.924 182.78C171.924 182.559 171.929 182.381 171.939 182.245C171.981 181.499 172.155 180.848 172.459 180.291C172.764 179.724 173.178 179.289 173.703 178.984C174.239 178.68 174.864 178.527 175.578 178.527C176.376 178.527 177.042 178.695 177.578 179.031C178.124 179.367 178.539 179.845 178.822 180.465C179.106 181.084 179.247 181.809 179.247 182.638V182.906C179.247 183.021 179.211 183.111 179.137 183.174C179.074 183.237 178.99 183.268 178.885 183.268H173.436C173.436 183.279 173.436 183.3 173.436 183.331C173.436 183.363 173.436 183.389 173.436 183.41C173.457 183.84 173.551 184.245 173.719 184.623C173.887 184.99 174.129 185.289 174.444 185.52C174.759 185.751 175.137 185.867 175.578 185.867C175.956 185.867 176.271 185.809 176.523 185.694C176.775 185.578 176.979 185.452 177.137 185.316C177.294 185.169 177.399 185.058 177.452 184.985C177.546 184.848 177.62 184.77 177.672 184.749C177.725 184.717 177.809 184.701 177.924 184.701H178.68C178.785 184.701 178.869 184.733 178.932 184.796C179.006 184.848 179.037 184.927 179.027 185.032C179.016 185.19 178.932 185.384 178.775 185.615C178.617 185.835 178.392 186.056 178.098 186.276C177.804 186.497 177.447 186.681 177.027 186.828C176.607 186.964 176.124 187.033 175.578 187.033ZM173.436 182.181H177.751V182.134C177.751 181.662 177.662 181.242 177.483 180.874C177.315 180.507 177.069 180.218 176.743 180.008C176.418 179.787 176.029 179.677 175.578 179.677C175.126 179.677 174.738 179.787 174.412 180.008C174.097 180.218 173.856 180.507 173.688 180.874C173.52 181.242 173.436 181.662 173.436 182.134V182.181ZM184.282 186.875C183.694 186.875 183.216 186.765 182.848 186.544C182.481 186.313 182.213 185.993 182.045 185.583C181.877 185.163 181.793 184.67 181.793 184.103V179.945H180.565C180.46 179.945 180.37 179.913 180.297 179.85C180.234 179.777 180.202 179.688 180.202 179.583V179.047C180.202 178.942 180.234 178.858 180.297 178.795C180.37 178.722 180.46 178.685 180.565 178.685H181.793V176.055C181.793 175.95 181.825 175.866 181.888 175.803C181.961 175.729 182.05 175.692 182.155 175.692H182.896C183.001 175.692 183.085 175.729 183.148 175.803C183.221 175.866 183.258 175.95 183.258 176.055V178.685H185.211C185.316 178.685 185.4 178.722 185.463 178.795C185.536 178.858 185.573 178.942 185.573 179.047V179.583C185.573 179.688 185.536 179.777 185.463 179.85C185.4 179.913 185.316 179.945 185.211 179.945H183.258V183.993C183.258 184.486 183.342 184.875 183.51 185.158C183.678 185.442 183.977 185.583 184.408 185.583H185.368C185.473 185.583 185.557 185.62 185.62 185.694C185.694 185.757 185.731 185.841 185.731 185.946V186.513C185.731 186.618 185.694 186.707 185.62 186.78C185.557 186.843 185.473 186.875 185.368 186.875H184.282Z" fill="#A3A3A3"/>
<rect x="113.781" y="199.125" width="329.438" height="13.125" rx="6.5625" fill="#F5F5F5"/>
<path d="M115.514 245C115.398 245 115.309 244.968 115.246 244.905C115.183 244.832 115.152 244.743 115.152 244.638V234.353C115.152 234.237 115.183 234.148 115.246 234.085C115.309 234.012 115.398 233.975 115.514 233.975H116.238C116.364 233.975 116.459 234.006 116.522 234.069C116.585 234.122 116.622 234.164 116.632 234.195L121.861 242.228V234.353C121.861 234.237 121.893 234.148 121.956 234.085C122.019 234.012 122.108 233.975 122.223 233.975H122.979C123.095 233.975 123.184 234.012 123.247 234.085C123.321 234.148 123.357 234.237 123.357 234.353V244.622C123.357 244.727 123.321 244.816 123.247 244.89C123.184 244.963 123.1 245 122.995 245H122.239C122.124 245 122.034 244.968 121.971 244.905C121.919 244.842 121.882 244.8 121.861 244.779L116.648 236.826V244.638C116.648 244.743 116.611 244.832 116.538 244.905C116.475 244.968 116.385 245 116.27 245H115.514ZM129.237 245.158C128.439 245.158 127.773 245.005 127.237 244.701C126.702 244.396 126.292 243.976 126.009 243.441C125.725 242.895 125.568 242.275 125.536 241.582C125.526 241.404 125.52 241.178 125.52 240.905C125.52 240.621 125.526 240.396 125.536 240.228C125.568 239.524 125.725 238.905 126.009 238.369C126.303 237.834 126.717 237.414 127.253 237.109C127.788 236.805 128.45 236.652 129.237 236.652C130.025 236.652 130.686 236.805 131.222 237.109C131.757 237.414 132.167 237.834 132.45 238.369C132.744 238.905 132.907 239.524 132.939 240.228C132.949 240.396 132.954 240.621 132.954 240.905C132.954 241.178 132.949 241.404 132.939 241.582C132.907 242.275 132.75 242.895 132.466 243.441C132.183 243.976 131.773 244.396 131.238 244.701C130.702 245.005 130.035 245.158 129.237 245.158ZM129.237 243.945C129.888 243.945 130.408 243.74 130.797 243.33C131.185 242.91 131.395 242.301 131.427 241.503C131.437 241.346 131.442 241.146 131.442 240.905C131.442 240.663 131.437 240.464 131.427 240.306C131.395 239.508 131.185 238.905 130.797 238.495C130.408 238.075 129.888 237.865 129.237 237.865C128.586 237.865 128.061 238.075 127.662 238.495C127.274 238.905 127.069 239.508 127.048 240.306C127.038 240.464 127.032 240.663 127.032 240.905C127.032 241.146 127.038 241.346 127.048 241.503C127.069 242.301 127.274 242.91 127.662 243.33C128.061 243.74 128.586 243.945 129.237 243.945ZM142.047 245.158C140.966 245.158 140.105 244.827 139.464 244.165C138.824 243.493 138.472 242.58 138.409 241.425C138.399 241.288 138.393 241.115 138.393 240.905C138.393 240.684 138.399 240.506 138.409 240.37C138.451 239.624 138.624 238.973 138.929 238.416C139.233 237.849 139.648 237.414 140.173 237.109C140.709 236.805 141.333 236.652 142.047 236.652C142.845 236.652 143.512 236.82 144.048 237.156C144.594 237.492 145.008 237.97 145.292 238.59C145.575 239.209 145.717 239.934 145.717 240.763V241.031C145.717 241.146 145.68 241.236 145.607 241.299C145.544 241.362 145.46 241.393 145.355 241.393H139.905C139.905 241.404 139.905 241.425 139.905 241.456C139.905 241.488 139.905 241.514 139.905 241.535C139.926 241.965 140.021 242.37 140.189 242.748C140.357 243.115 140.598 243.414 140.913 243.645C141.228 243.876 141.606 243.992 142.047 243.992C142.425 243.992 142.74 243.934 142.992 243.819C143.244 243.703 143.449 243.577 143.607 243.441C143.764 243.294 143.869 243.183 143.922 243.11C144.016 242.973 144.09 242.895 144.142 242.874C144.195 242.842 144.279 242.826 144.394 242.826H145.15C145.255 242.826 145.339 242.858 145.402 242.921C145.476 242.973 145.507 243.052 145.497 243.157C145.486 243.315 145.402 243.509 145.245 243.74C145.087 243.96 144.861 244.181 144.567 244.401C144.273 244.622 143.916 244.806 143.496 244.953C143.076 245.089 142.593 245.158 142.047 245.158ZM139.905 240.306H144.221V240.259C144.221 239.787 144.132 239.367 143.953 238.999C143.785 238.632 143.538 238.343 143.213 238.133C142.887 237.912 142.499 237.802 142.047 237.802C141.596 237.802 141.207 237.912 140.882 238.133C140.567 238.343 140.325 238.632 140.157 238.999C139.989 239.367 139.905 239.787 139.905 240.259V240.306ZM147.963 245C147.858 245 147.768 244.968 147.695 244.905C147.632 244.832 147.6 244.743 147.6 244.638V237.172C147.6 237.067 147.632 236.983 147.695 236.92C147.768 236.847 147.858 236.81 147.963 236.81H148.671C148.776 236.81 148.86 236.847 148.923 236.92C148.997 236.983 149.034 237.067 149.034 237.172V237.723C149.275 237.398 149.58 237.141 149.947 236.952C150.315 236.752 150.756 236.652 151.27 236.652C152.457 236.642 153.297 237.125 153.79 238.101C154.032 237.66 154.383 237.309 154.845 237.046C155.307 236.784 155.832 236.652 156.42 236.652C156.966 236.652 157.46 236.778 157.901 237.03C158.352 237.282 158.704 237.666 158.956 238.18C159.219 238.684 159.35 239.319 159.35 240.086V244.638C159.35 244.743 159.313 244.832 159.24 244.905C159.177 244.968 159.093 245 158.988 245H158.247C158.142 245 158.053 244.968 157.98 244.905C157.917 244.832 157.885 244.743 157.885 244.638V240.228C157.885 239.64 157.801 239.178 157.633 238.842C157.465 238.506 157.239 238.269 156.956 238.133C156.672 237.996 156.363 237.928 156.027 237.928C155.754 237.928 155.475 237.996 155.192 238.133C154.908 238.269 154.672 238.506 154.483 238.842C154.305 239.178 154.215 239.64 154.215 240.228V244.638C154.215 244.743 154.179 244.832 154.105 244.905C154.042 244.968 153.958 245 153.853 245H153.113C153.008 245 152.919 244.968 152.845 244.905C152.782 244.832 152.751 244.743 152.751 244.638V240.228C152.751 239.64 152.661 239.178 152.483 238.842C152.304 238.506 152.073 238.269 151.79 238.133C151.506 237.996 151.207 237.928 150.892 237.928C150.619 237.928 150.341 237.996 150.057 238.133C149.774 238.269 149.538 238.506 149.349 238.842C149.17 239.178 149.081 239.634 149.081 240.212V244.638C149.081 244.743 149.044 244.832 148.971 244.905C148.908 244.968 148.824 245 148.719 245H147.963ZM163.881 245.158C163.356 245.158 162.878 245.053 162.447 244.842C162.017 244.632 161.67 244.349 161.408 243.992C161.145 243.635 161.014 243.231 161.014 242.779C161.014 242.055 161.308 241.477 161.896 241.047C162.484 240.616 163.251 240.333 164.196 240.196L166.542 239.865V239.409C166.542 238.905 166.395 238.511 166.101 238.227C165.818 237.944 165.351 237.802 164.7 237.802C164.227 237.802 163.844 237.897 163.55 238.086C163.266 238.275 163.067 238.516 162.951 238.81C162.888 238.968 162.778 239.046 162.621 239.046H161.912C161.796 239.046 161.707 239.015 161.644 238.952C161.592 238.878 161.565 238.794 161.565 238.7C161.565 238.542 161.623 238.348 161.739 238.117C161.865 237.886 162.054 237.66 162.306 237.44C162.558 237.219 162.878 237.036 163.266 236.889C163.665 236.731 164.148 236.652 164.715 236.652C165.345 236.652 165.876 236.736 166.306 236.905C166.737 237.062 167.073 237.277 167.314 237.55C167.566 237.823 167.745 238.133 167.85 238.479C167.965 238.826 168.023 239.178 168.023 239.535V244.638C168.023 244.743 167.986 244.832 167.913 244.905C167.85 244.968 167.766 245 167.661 245H166.936C166.821 245 166.731 244.968 166.668 244.905C166.605 244.832 166.574 244.743 166.574 244.638V243.961C166.437 244.149 166.254 244.338 166.023 244.527C165.792 244.706 165.503 244.858 165.156 244.984C164.81 245.1 164.385 245.158 163.881 245.158ZM164.211 243.976C164.642 243.976 165.036 243.887 165.393 243.708C165.75 243.519 166.028 243.231 166.227 242.842C166.437 242.454 166.542 241.965 166.542 241.377V240.936L164.715 241.204C163.97 241.309 163.408 241.488 163.03 241.74C162.652 241.981 162.463 242.291 162.463 242.669C162.463 242.963 162.547 243.21 162.715 243.409C162.894 243.598 163.114 243.74 163.377 243.834C163.65 243.929 163.928 243.976 164.211 243.976ZM170.649 245C170.544 245 170.455 244.968 170.382 244.905C170.319 244.832 170.287 244.743 170.287 244.638V237.172C170.287 237.067 170.319 236.983 170.382 236.92C170.455 236.847 170.544 236.81 170.649 236.81H171.405C171.51 236.81 171.594 236.847 171.657 236.92C171.72 236.983 171.752 237.067 171.752 237.172V244.638C171.752 244.743 171.72 244.832 171.657 244.905C171.594 244.968 171.51 245 171.405 245H170.649ZM170.523 235.282C170.418 235.282 170.329 235.251 170.256 235.188C170.193 235.114 170.161 235.025 170.161 234.92V234.069C170.161 233.964 170.193 233.88 170.256 233.817C170.329 233.744 170.418 233.707 170.523 233.707H171.516C171.621 233.707 171.705 233.744 171.768 233.817C171.841 233.88 171.878 233.964 171.878 234.069V234.92C171.878 235.025 171.841 235.114 171.768 235.188C171.705 235.251 171.621 235.282 171.516 235.282H170.523ZM174.48 245C174.375 245 174.285 244.968 174.212 244.905C174.149 244.832 174.117 244.743 174.117 244.638V234.18C174.117 234.075 174.149 233.991 174.212 233.928C174.285 233.854 174.375 233.817 174.48 233.817H175.22C175.335 233.817 175.425 233.854 175.488 233.928C175.551 233.991 175.582 234.075 175.582 234.18V244.638C175.582 244.743 175.551 244.832 175.488 244.905C175.425 244.968 175.335 245 175.22 245H174.48Z" fill="#A3A3A3"/>
<rect x="113.781" y="257.25" width="329.438" height="13.125" rx="6.5625" fill="#F5F5F5"/>
<path d="M115.514 303.125C115.398 303.125 115.309 303.093 115.246 303.03C115.183 302.957 115.152 302.868 115.152 302.763V292.478C115.152 292.362 115.183 292.273 115.246 292.21C115.309 292.137 115.398 292.1 115.514 292.1H116.238C116.364 292.1 116.459 292.131 116.522 292.194C116.585 292.247 116.622 292.289 116.632 292.32L121.861 300.353V292.478C121.861 292.362 121.893 292.273 121.956 292.21C122.019 292.137 122.108 292.1 122.223 292.1H122.979C123.095 292.1 123.184 292.137 123.247 292.21C123.321 292.273 123.357 292.362 123.357 292.478V302.747C123.357 302.852 123.321 302.941 123.247 303.015C123.184 303.088 123.1 303.125 122.995 303.125H122.239C122.124 303.125 122.034 303.093 121.971 303.03C121.919 302.967 121.882 302.925 121.861 302.904L116.648 294.951V302.763C116.648 302.868 116.611 302.957 116.538 303.03C116.475 303.093 116.385 303.125 116.27 303.125H115.514ZM129.237 303.283C128.439 303.283 127.773 303.13 127.237 302.826C126.702 302.521 126.292 302.101 126.009 301.566C125.725 301.02 125.568 300.4 125.536 299.707C125.526 299.529 125.52 299.303 125.52 299.03C125.52 298.746 125.526 298.521 125.536 298.353C125.568 297.649 125.725 297.03 126.009 296.494C126.303 295.959 126.717 295.539 127.253 295.234C127.788 294.93 128.45 294.777 129.237 294.777C130.025 294.777 130.686 294.93 131.222 295.234C131.757 295.539 132.167 295.959 132.45 296.494C132.744 297.03 132.907 297.649 132.939 298.353C132.949 298.521 132.954 298.746 132.954 299.03C132.954 299.303 132.949 299.529 132.939 299.707C132.907 300.4 132.75 301.02 132.466 301.566C132.183 302.101 131.773 302.521 131.238 302.826C130.702 303.13 130.035 303.283 129.237 303.283ZM129.237 302.07C129.888 302.07 130.408 301.865 130.797 301.455C131.185 301.035 131.395 300.426 131.427 299.628C131.437 299.471 131.442 299.271 131.442 299.03C131.442 298.788 131.437 298.589 131.427 298.431C131.395 297.633 131.185 297.03 130.797 296.62C130.408 296.2 129.888 295.99 129.237 295.99C128.586 295.99 128.061 296.2 127.662 296.62C127.274 297.03 127.069 297.633 127.048 298.431C127.038 298.589 127.032 298.788 127.032 299.03C127.032 299.271 127.038 299.471 127.048 299.628C127.069 300.426 127.274 301.035 127.662 301.455C128.061 301.865 128.586 302.07 129.237 302.07ZM141.646 303.125C141.058 303.125 140.58 303.015 140.213 302.794C139.845 302.563 139.577 302.243 139.409 301.833C139.241 301.413 139.157 300.92 139.157 300.353V296.195H137.929C137.824 296.195 137.735 296.163 137.661 296.1C137.598 296.027 137.567 295.938 137.567 295.833V295.297C137.567 295.192 137.598 295.108 137.661 295.045C137.735 294.972 137.824 294.935 137.929 294.935H139.157V292.305C139.157 292.2 139.189 292.116 139.252 292.053C139.325 291.979 139.415 291.942 139.52 291.942H140.26C140.365 291.942 140.449 291.979 140.512 292.053C140.585 292.116 140.622 292.2 140.622 292.305V294.935H142.575C142.68 294.935 142.764 294.972 142.827 295.045C142.901 295.108 142.937 295.192 142.937 295.297V295.833C142.937 295.938 142.901 296.027 142.827 296.1C142.764 296.163 142.68 296.195 142.575 296.195H140.622V300.243C140.622 300.736 140.706 301.125 140.874 301.408C141.042 301.692 141.341 301.833 141.772 301.833H142.733C142.838 301.833 142.922 301.87 142.985 301.944C143.058 302.007 143.095 302.091 143.095 302.196V302.763C143.095 302.868 143.058 302.957 142.985 303.03C142.922 303.093 142.838 303.125 142.733 303.125H141.646ZM147.861 303.283C146.78 303.283 145.919 302.952 145.278 302.29C144.638 301.618 144.286 300.705 144.223 299.55C144.213 299.413 144.207 299.24 144.207 299.03C144.207 298.809 144.213 298.631 144.223 298.495C144.265 297.749 144.438 297.098 144.743 296.541C145.047 295.974 145.462 295.539 145.987 295.234C146.523 294.93 147.147 294.777 147.861 294.777C148.659 294.777 149.326 294.945 149.862 295.281C150.408 295.617 150.822 296.095 151.106 296.715C151.389 297.334 151.531 298.059 151.531 298.888V299.156C151.531 299.271 151.494 299.361 151.421 299.424C151.358 299.487 151.274 299.518 151.169 299.518H145.719C145.719 299.529 145.719 299.55 145.719 299.581C145.719 299.613 145.719 299.639 145.719 299.66C145.74 300.09 145.835 300.495 146.003 300.873C146.171 301.24 146.412 301.539 146.727 301.77C147.042 302.001 147.42 302.117 147.861 302.117C148.239 302.117 148.554 302.059 148.806 301.944C149.058 301.828 149.263 301.702 149.421 301.566C149.578 301.419 149.683 301.308 149.736 301.235C149.83 301.098 149.904 301.02 149.956 300.999C150.009 300.967 150.093 300.951 150.208 300.951H150.964C151.069 300.951 151.153 300.983 151.216 301.046C151.29 301.098 151.321 301.177 151.311 301.282C151.3 301.44 151.216 301.634 151.059 301.865C150.901 302.085 150.675 302.306 150.381 302.526C150.087 302.747 149.73 302.931 149.31 303.078C148.89 303.214 148.407 303.283 147.861 303.283ZM145.719 298.431H150.035V298.384C150.035 297.912 149.946 297.492 149.767 297.124C149.599 296.757 149.352 296.468 149.027 296.258C148.701 296.037 148.313 295.927 147.861 295.927C147.41 295.927 147.021 296.037 146.696 296.258C146.381 296.468 146.139 296.757 145.971 297.124C145.803 297.492 145.719 297.912 145.719 298.384V298.431ZM153.792 303.125C153.687 303.125 153.598 303.093 153.525 303.03C153.462 302.957 153.43 302.868 153.43 302.763V292.305C153.43 292.2 153.462 292.116 153.525 292.053C153.598 291.979 153.687 291.942 153.792 291.942H154.533C154.648 291.942 154.737 291.979 154.8 292.053C154.863 292.116 154.895 292.2 154.895 292.305V302.763C154.895 302.868 154.863 302.957 154.8 303.03C154.737 303.093 154.648 303.125 154.533 303.125H153.792ZM157.622 306.118C157.517 306.118 157.428 306.081 157.354 306.007C157.291 305.944 157.26 305.86 157.26 305.755V295.297C157.26 295.192 157.291 295.108 157.354 295.045C157.428 294.972 157.517 294.935 157.622 294.935H158.347C158.452 294.935 158.536 294.972 158.599 295.045C158.672 295.108 158.709 295.192 158.709 295.297V295.99C158.961 295.644 159.297 295.355 159.717 295.124C160.137 294.893 160.662 294.777 161.292 294.777C161.88 294.777 162.379 294.877 162.788 295.077C163.208 295.276 163.549 295.549 163.812 295.896C164.085 296.242 164.29 296.636 164.426 297.077C164.563 297.518 164.636 297.99 164.647 298.495C164.657 298.662 164.662 298.841 164.662 299.03C164.662 299.219 164.657 299.397 164.647 299.565C164.636 300.059 164.563 300.531 164.426 300.983C164.29 301.424 164.085 301.818 163.812 302.164C163.549 302.5 163.208 302.773 162.788 302.983C162.379 303.183 161.88 303.283 161.292 303.283C160.683 303.283 160.168 303.172 159.748 302.952C159.339 302.721 159.003 302.437 158.74 302.101V305.755C158.74 305.86 158.709 305.944 158.646 306.007C158.583 306.081 158.494 306.118 158.378 306.118H157.622ZM160.961 302.007C161.507 302.007 161.932 301.891 162.237 301.66C162.552 301.419 162.778 301.109 162.914 300.731C163.051 300.342 163.129 299.928 163.15 299.487C163.161 299.182 163.161 298.878 163.15 298.573C163.129 298.132 163.051 297.723 162.914 297.345C162.778 296.956 162.552 296.646 162.237 296.415C161.932 296.174 161.507 296.053 160.961 296.053C160.447 296.053 160.027 296.174 159.701 296.415C159.386 296.657 159.15 296.967 158.992 297.345C158.845 297.712 158.761 298.09 158.74 298.479C158.73 298.647 158.725 298.846 158.725 299.077C158.725 299.308 158.73 299.513 158.74 299.691C158.751 300.059 158.835 300.421 158.992 300.778C159.16 301.135 159.407 301.429 159.733 301.66C160.058 301.891 160.468 302.007 160.961 302.007Z" fill="#A3A3A3"/>
<rect x="113.781" y="315.375" width="329.438" height="13.125" rx="6.5625" fill="#F5F5F5"/>
<path d="M115.514 361.25C115.398 361.25 115.309 361.218 115.246 361.155C115.183 361.082 115.152 360.993 115.152 360.888V350.603C115.152 350.487 115.183 350.398 115.246 350.335C115.309 350.262 115.398 350.225 115.514 350.225H116.238C116.364 350.225 116.459 350.256 116.522 350.319C116.585 350.372 116.622 350.414 116.632 350.445L121.861 358.478V350.603C121.861 350.487 121.893 350.398 121.956 350.335C122.019 350.262 122.108 350.225 122.223 350.225H122.979C123.095 350.225 123.184 350.262 123.247 350.335C123.321 350.398 123.357 350.487 123.357 350.603V360.872C123.357 360.977 123.321 361.066 123.247 361.14C123.184 361.213 123.1 361.25 122.995 361.25H122.239C122.124 361.25 122.034 361.218 121.971 361.155C121.919 361.092 121.882 361.05 121.861 361.029L116.648 353.076V360.888C116.648 360.993 116.611 361.082 116.538 361.155C116.475 361.218 116.385 361.25 116.27 361.25H115.514ZM129.237 361.408C128.439 361.408 127.773 361.255 127.237 360.951C126.702 360.646 126.292 360.226 126.009 359.691C125.725 359.145 125.568 358.525 125.536 357.832C125.526 357.654 125.52 357.428 125.52 357.155C125.52 356.871 125.526 356.646 125.536 356.478C125.568 355.774 125.725 355.155 126.009 354.619C126.303 354.084 126.717 353.664 127.253 353.359C127.788 353.055 128.45 352.902 129.237 352.902C130.025 352.902 130.686 353.055 131.222 353.359C131.757 353.664 132.167 354.084 132.45 354.619C132.744 355.155 132.907 355.774 132.939 356.478C132.949 356.646 132.954 356.871 132.954 357.155C132.954 357.428 132.949 357.654 132.939 357.832C132.907 358.525 132.75 359.145 132.466 359.691C132.183 360.226 131.773 360.646 131.238 360.951C130.702 361.255 130.035 361.408 129.237 361.408ZM129.237 360.195C129.888 360.195 130.408 359.99 130.797 359.58C131.185 359.16 131.395 358.551 131.427 357.753C131.437 357.596 131.442 357.396 131.442 357.155C131.442 356.913 131.437 356.714 131.427 356.556C131.395 355.758 131.185 355.155 130.797 354.745C130.408 354.325 129.888 354.115 129.237 354.115C128.586 354.115 128.061 354.325 127.662 354.745C127.274 355.155 127.069 355.758 127.048 356.556C127.038 356.714 127.032 356.913 127.032 357.155C127.032 357.396 127.038 357.596 127.048 357.753C127.069 358.551 127.274 359.16 127.662 359.58C128.061 359.99 128.586 360.195 129.237 360.195ZM139.354 361.25C139.239 361.25 139.149 361.218 139.086 361.155C139.023 361.082 138.992 360.993 138.992 360.888V350.603C138.992 350.487 139.023 350.398 139.086 350.335C139.149 350.262 139.239 350.225 139.354 350.225H143.355C144.132 350.225 144.804 350.351 145.371 350.603C145.948 350.855 146.394 351.233 146.709 351.737C147.024 352.23 147.182 352.85 147.182 353.595C147.182 354.341 147.024 354.96 146.709 355.454C146.394 355.947 145.948 356.32 145.371 356.572C144.804 356.824 144.132 356.95 143.355 356.95H140.567V360.888C140.567 360.993 140.53 361.082 140.457 361.155C140.394 361.218 140.304 361.25 140.189 361.25H139.354ZM140.551 355.627H143.276C144.053 355.627 144.636 355.454 145.024 355.107C145.413 354.761 145.607 354.257 145.607 353.595C145.607 352.944 145.418 352.44 145.04 352.083C144.662 351.726 144.074 351.548 143.276 351.548H140.551V355.627ZM151.022 361.408C150.497 361.408 150.019 361.303 149.589 361.092C149.158 360.882 148.812 360.599 148.549 360.242C148.287 359.885 148.156 359.481 148.156 359.029C148.156 358.305 148.45 357.727 149.038 357.297C149.626 356.866 150.392 356.583 151.337 356.446L153.684 356.115V355.659C153.684 355.155 153.537 354.761 153.243 354.477C152.959 354.194 152.492 354.052 151.841 354.052C151.369 354.052 150.985 354.147 150.691 354.336C150.408 354.525 150.208 354.766 150.093 355.06C150.03 355.218 149.92 355.296 149.762 355.296H149.053C148.938 355.296 148.849 355.265 148.786 355.202C148.733 355.128 148.707 355.044 148.707 354.95C148.707 354.792 148.765 354.598 148.88 354.367C149.006 354.136 149.195 353.91 149.447 353.69C149.699 353.469 150.019 353.286 150.408 353.139C150.807 352.981 151.29 352.902 151.857 352.902C152.487 352.902 153.017 352.986 153.448 353.155C153.878 353.312 154.214 353.527 154.456 353.8C154.708 354.073 154.886 354.383 154.991 354.729C155.107 355.076 155.164 355.428 155.164 355.785V360.888C155.164 360.993 155.128 361.082 155.054 361.155C154.991 361.218 154.907 361.25 154.802 361.25H154.078C153.962 361.25 153.873 361.218 153.81 361.155C153.747 361.082 153.715 360.993 153.715 360.888V360.211C153.579 360.399 153.395 360.588 153.164 360.777C152.933 360.956 152.644 361.108 152.298 361.234C151.951 361.35 151.526 361.408 151.022 361.408ZM151.353 360.226C151.783 360.226 152.177 360.137 152.534 359.958C152.891 359.769 153.169 359.481 153.369 359.092C153.579 358.704 153.684 358.215 153.684 357.627V357.186L151.857 357.454C151.111 357.559 150.55 357.738 150.172 357.99C149.794 358.231 149.605 358.541 149.605 358.919C149.605 359.213 149.689 359.46 149.857 359.659C150.035 359.848 150.256 359.99 150.518 360.084C150.791 360.179 151.069 360.226 151.353 360.226ZM160.264 361.408C159.676 361.408 159.172 361.334 158.752 361.187C158.332 361.04 157.99 360.861 157.728 360.651C157.465 360.441 157.266 360.231 157.129 360.021C157.003 359.811 156.935 359.643 156.925 359.517C156.914 359.402 156.951 359.313 157.035 359.25C157.119 359.187 157.203 359.155 157.287 359.155H157.98C158.043 359.155 158.09 359.166 158.122 359.187C158.164 359.197 158.216 359.239 158.279 359.313C158.416 359.46 158.568 359.607 158.736 359.754C158.904 359.901 159.109 360.021 159.35 360.116C159.602 360.21 159.912 360.258 160.279 360.258C160.815 360.258 161.256 360.158 161.602 359.958C161.949 359.748 162.122 359.444 162.122 359.045C162.122 358.782 162.049 358.572 161.902 358.415C161.765 358.257 161.513 358.116 161.146 357.99C160.789 357.864 160.295 357.732 159.665 357.596C159.035 357.449 158.536 357.27 158.169 357.06C157.801 356.84 157.539 356.583 157.381 356.289C157.224 355.984 157.145 355.643 157.145 355.265C157.145 354.876 157.261 354.504 157.492 354.147C157.723 353.779 158.059 353.48 158.5 353.249C158.951 353.018 159.513 352.902 160.185 352.902C160.731 352.902 161.198 352.971 161.587 353.107C161.975 353.244 162.295 353.417 162.547 353.627C162.799 353.826 162.988 354.026 163.114 354.225C163.24 354.425 163.309 354.593 163.319 354.729C163.33 354.834 163.298 354.924 163.225 354.997C163.151 355.06 163.067 355.092 162.973 355.092H162.311C162.238 355.092 162.175 355.076 162.122 355.044C162.08 355.013 162.038 354.976 161.996 354.934C161.891 354.798 161.765 354.661 161.618 354.525C161.482 354.388 161.298 354.278 161.067 354.194C160.846 354.099 160.552 354.052 160.185 354.052C159.66 354.052 159.266 354.162 159.004 354.383C158.741 354.603 158.61 354.882 158.61 355.218C158.61 355.417 158.668 355.596 158.783 355.753C158.899 355.911 159.119 356.052 159.445 356.178C159.77 356.304 160.253 356.441 160.894 356.588C161.587 356.724 162.133 356.908 162.532 357.139C162.931 357.37 163.214 357.638 163.382 357.942C163.55 358.247 163.634 358.599 163.634 358.998C163.634 359.439 163.503 359.843 163.24 360.211C162.988 360.578 162.61 360.872 162.106 361.092C161.613 361.303 160.999 361.408 160.264 361.408ZM168.292 361.408C167.704 361.408 167.2 361.334 166.78 361.187C166.36 361.04 166.019 360.861 165.757 360.651C165.494 360.441 165.295 360.231 165.158 360.021C165.032 359.811 164.964 359.643 164.953 359.517C164.943 359.402 164.98 359.313 165.064 359.25C165.148 359.187 165.232 359.155 165.316 359.155H166.009C166.072 359.155 166.119 359.166 166.15 359.187C166.192 359.197 166.245 359.239 166.308 359.313C166.444 359.46 166.597 359.607 166.765 359.754C166.933 359.901 167.137 360.021 167.379 360.116C167.631 360.21 167.941 360.258 168.308 360.258C168.844 360.258 169.285 360.158 169.631 359.958C169.978 359.748 170.151 359.444 170.151 359.045C170.151 358.782 170.077 358.572 169.93 358.415C169.794 358.257 169.542 358.116 169.174 357.99C168.817 357.864 168.324 357.732 167.694 357.596C167.064 357.449 166.565 357.27 166.198 357.06C165.83 356.84 165.568 356.583 165.41 356.289C165.253 355.984 165.174 355.643 165.174 355.265C165.174 354.876 165.289 354.504 165.52 354.147C165.751 353.779 166.087 353.48 166.528 353.249C166.98 353.018 167.542 352.902 168.214 352.902C168.76 352.902 169.227 352.971 169.615 353.107C170.004 353.244 170.324 353.417 170.576 353.627C170.828 353.826 171.017 354.026 171.143 354.225C171.269 354.425 171.337 354.593 171.348 354.729C171.358 354.834 171.327 354.924 171.253 354.997C171.18 355.06 171.096 355.092 171.001 355.092H170.34C170.266 355.092 170.203 355.076 170.151 355.044C170.109 355.013 170.067 354.976 170.025 354.934C169.92 354.798 169.794 354.661 169.647 354.525C169.51 354.388 169.327 354.278 169.096 354.194C168.875 354.099 168.581 354.052 168.214 354.052C167.689 354.052 167.295 354.162 167.032 354.383C166.77 354.603 166.639 354.882 166.639 355.218C166.639 355.417 166.696 355.596 166.812 355.753C166.927 355.911 167.148 356.052 167.473 356.178C167.799 356.304 168.282 356.441 168.922 356.588C169.615 356.724 170.161 356.908 170.56 357.139C170.959 357.37 171.243 357.638 171.411 357.942C171.579 358.247 171.663 358.599 171.663 358.998C171.663 359.439 171.532 359.843 171.269 360.211C171.017 360.578 170.639 360.872 170.135 361.092C169.642 361.303 169.027 361.408 168.292 361.408ZM175.444 361.25C175.308 361.25 175.203 361.218 175.129 361.155C175.056 361.082 174.993 360.982 174.94 360.856L172.704 353.548C172.683 353.496 172.672 353.443 172.672 353.391C172.672 353.296 172.704 353.217 172.767 353.155C172.84 353.091 172.919 353.06 173.003 353.06H173.696C173.812 353.06 173.901 353.091 173.964 353.155C174.027 353.217 174.069 353.275 174.09 353.328L175.838 359.265L177.712 353.391C177.733 353.317 177.775 353.244 177.838 353.17C177.912 353.097 178.017 353.06 178.153 353.06H178.689C178.825 353.06 178.93 353.097 179.004 353.17C179.077 353.244 179.119 353.317 179.13 353.391L181.004 359.265L182.752 353.328C182.763 353.275 182.8 353.217 182.863 353.155C182.926 353.091 183.015 353.06 183.13 353.06H183.823C183.918 353.06 183.997 353.091 184.06 353.155C184.123 353.217 184.154 353.296 184.154 353.391C184.154 353.443 184.144 353.496 184.123 353.548L181.886 360.856C181.855 360.982 181.797 361.082 181.713 361.155C181.639 361.218 181.529 361.25 181.382 361.25H180.768C180.631 361.25 180.516 361.218 180.421 361.155C180.337 361.082 180.28 360.982 180.248 360.856L178.421 355.218L176.594 360.856C176.552 360.982 176.489 361.082 176.405 361.155C176.321 361.218 176.206 361.25 176.059 361.25H175.444ZM189.038 361.408C188.24 361.408 187.573 361.255 187.038 360.951C186.502 360.646 186.093 360.226 185.809 359.691C185.526 359.145 185.368 358.525 185.337 357.832C185.326 357.654 185.321 357.428 185.321 357.155C185.321 356.871 185.326 356.646 185.337 356.478C185.368 355.774 185.526 355.155 185.809 354.619C186.103 354.084 186.518 353.664 187.054 353.359C187.589 353.055 188.251 352.902 189.038 352.902C189.826 352.902 190.487 353.055 191.023 353.359C191.558 353.664 191.968 354.084 192.251 354.619C192.545 355.155 192.708 355.774 192.739 356.478C192.75 356.646 192.755 356.871 192.755 357.155C192.755 357.428 192.75 357.654 192.739 357.832C192.708 358.525 192.55 359.145 192.267 359.691C191.983 360.226 191.574 360.646 191.038 360.951C190.503 361.255 189.836 361.408 189.038 361.408ZM189.038 360.195C189.689 360.195 190.209 359.99 190.597 359.58C190.986 359.16 191.196 358.551 191.227 357.753C191.238 357.596 191.243 357.396 191.243 357.155C191.243 356.913 191.238 356.714 191.227 356.556C191.196 355.758 190.986 355.155 190.597 354.745C190.209 354.325 189.689 354.115 189.038 354.115C188.387 354.115 187.862 354.325 187.463 354.745C187.075 355.155 186.87 355.758 186.849 356.556C186.838 356.714 186.833 356.913 186.833 357.155C186.833 357.396 186.838 357.596 186.849 357.753C186.87 358.551 187.075 359.16 187.463 359.58C187.862 359.99 188.387 360.195 189.038 360.195ZM195.09 361.25C194.985 361.25 194.895 361.218 194.822 361.155C194.759 361.082 194.727 360.993 194.727 360.888V353.438C194.727 353.333 194.759 353.244 194.822 353.17C194.895 353.097 194.985 353.06 195.09 353.06H195.814C195.919 353.06 196.008 353.097 196.082 353.17C196.155 353.244 196.192 353.333 196.192 353.438V354.131C196.402 353.774 196.691 353.506 197.058 353.328C197.426 353.149 197.867 353.06 198.381 353.06H199.011C199.116 353.06 199.2 353.097 199.263 353.17C199.326 353.233 199.358 353.317 199.358 353.422V354.068C199.358 354.173 199.326 354.257 199.263 354.32C199.2 354.383 199.116 354.414 199.011 354.414H198.066C197.499 354.414 197.053 354.582 196.728 354.918C196.402 355.244 196.239 355.69 196.239 356.257V360.888C196.239 360.993 196.203 361.082 196.129 361.155C196.056 361.218 195.966 361.25 195.861 361.25H195.09ZM203.534 361.408C202.956 361.408 202.457 361.308 202.037 361.108C201.617 360.898 201.271 360.62 200.998 360.273C200.735 359.916 200.536 359.512 200.399 359.061C200.273 358.609 200.2 358.131 200.179 357.627C200.168 357.459 200.163 357.302 200.163 357.155C200.163 357.008 200.168 356.85 200.179 356.682C200.2 356.189 200.273 355.716 200.399 355.265C200.536 354.813 200.735 354.409 200.998 354.052C201.271 353.695 201.617 353.417 202.037 353.217C202.457 353.007 202.956 352.902 203.534 352.902C204.153 352.902 204.668 353.013 205.077 353.233C205.487 353.454 205.823 353.727 206.085 354.052V350.43C206.085 350.325 206.117 350.241 206.18 350.178C206.253 350.104 206.342 350.067 206.447 350.067H207.203C207.308 350.067 207.392 350.104 207.455 350.178C207.529 350.241 207.566 350.325 207.566 350.43V360.888C207.566 360.993 207.529 361.082 207.455 361.155C207.392 361.218 207.308 361.25 207.203 361.25H206.495C206.379 361.25 206.29 361.218 206.227 361.155C206.164 361.082 206.132 360.993 206.132 360.888V360.226C205.87 360.562 205.529 360.846 205.109 361.077C204.689 361.297 204.164 361.408 203.534 361.408ZM203.864 360.132C204.389 360.132 204.809 360.011 205.124 359.769C205.439 359.528 205.676 359.223 205.833 358.856C205.991 358.478 206.075 358.095 206.085 357.706C206.096 357.538 206.101 357.339 206.101 357.108C206.101 356.866 206.096 356.661 206.085 356.493C206.075 356.126 205.985 355.764 205.817 355.407C205.66 355.05 205.418 354.756 205.093 354.525C204.778 354.294 204.368 354.178 203.864 354.178C203.329 354.178 202.904 354.299 202.589 354.54C202.274 354.771 202.048 355.081 201.911 355.47C201.775 355.848 201.696 356.257 201.675 356.698C201.665 357.003 201.665 357.307 201.675 357.612C201.696 358.053 201.775 358.467 201.911 358.856C202.048 359.234 202.274 359.544 202.589 359.785C202.904 360.016 203.329 360.132 203.864 360.132Z" fill="#A3A3A3"/>
<rect x="113.781" y="373.5" width="329.438" height="13.125" rx="6.5625" fill="#F5F5F5"/>
</g>
<rect x="403.5" y="32.5" width="111" height="111" rx="55.5" fill="#00B1B8" fill-opacity="0.1"/>
<rect x="403.5" y="32.5" width="111" height="111" rx="55.5" stroke="#00B1B8"/>
<path d="M459 116.693C456.093 116.693 453.213 115.84 450.947 114.16L439.48 105.6C436.44 103.333 434.067 98.6132 434.067 94.8265V74.9865C434.067 70.8798 437.08 66.5065 440.947 65.0665L454.253 60.0798C456.893 59.0932 461.053 59.0932 463.693 60.0798L477.027 65.0665C480.893 66.5065 483.907 70.8798 483.907 74.9865V94.7998C483.907 98.5865 481.533 103.307 478.493 105.573L467.027 114.133C464.787 115.84 461.907 116.693 459 116.693ZM455.667 63.8398L442.36 68.8265C440.067 69.6798 438.067 72.5598 438.067 75.0132V94.8265C438.067 97.3598 439.853 100.907 441.853 102.4L453.32 110.96C456.387 113.253 461.587 113.253 464.653 110.96L476.12 102.4C478.147 100.88 479.907 97.3332 479.907 94.8265V74.9865C479.907 72.5598 477.907 69.6798 475.613 68.7998L462.307 63.8132C460.547 63.1732 457.453 63.1732 455.667 63.8398Z" fill="#049398"/>
<path d="M459 91.3332C454.947 91.3332 451.667 88.0532 451.667 83.9998C451.667 79.9465 454.947 76.6665 459 76.6665C463.053 76.6665 466.333 79.9465 466.333 83.9998C466.333 88.0532 463.053 91.3332 459 91.3332ZM459 80.6665C457.16 80.6665 455.667 82.1598 455.667 83.9998C455.667 85.8398 457.16 87.3332 459 87.3332C460.84 87.3332 462.333 85.8398 462.333 83.9998C462.333 82.1598 460.84 80.6665 459 80.6665Z" fill="#049398"/>
<path d="M459 99.3335C457.907 99.3335 457 98.4268 457 97.3335V89.3335C457 88.2402 457.907 87.3335 459 87.3335C460.093 87.3335 461 88.2402 461 89.3335V97.3335C461 98.4268 460.093 99.3335 459 99.3335Z" fill="#049398"/>
</g>
<defs>
<filter id="filter0_d_1182_2584" x="4.90625" y="-3" width="595.188" height="544" filterUnits="userSpaceOnUse" color-interpolation-filters="sRGB">
<feFlood flood-opacity="0" result="BackgroundImageFix"/>
<feColorMatrix in="SourceAlpha" type="matrix" values="0 0 0 0 0 0 0 0 0 0 0 0 0 0 0 0 0 0 127 0" result="hardAlpha"/>
<feOffset dx="24" dy="23"/>
<feGaussianBlur stdDeviation="52"/>
<feComposite in2="hardAlpha" operator="out"/>
<feColorMatrix type="matrix" values="0 0 0 0 0 0 0 0 0 0 0 0 0 0 0 0 0 0 0.01 0"/>
<feBlend mode="normal" in2="BackgroundImageFix" result="effect1_dropShadow_1182_2584"/>
<feBlend mode="normal" in="SourceGraphic" in2="effect1_dropShadow_1182_2584" result="shape"/>
</filter>
<linearGradient id="paint0_linear_1182_2584" x1="279.248" y1="206" x2="279.248" y2="459.511" gradientUnits="userSpaceOnUse">
<stop stop-color="#017F83" stop-opacity="0"/>
<stop offset="0.461538" stop-color="#017F83" stop-opacity="0.0415385"/>
<stop offset="1" stop-color="#017F83" stop-opacity="0.09"/>
</linearGradient>
<clipPath id="clip0_1182_2584">
<rect width="558" height="412" rx="24" fill="white"/>
</clipPath>
</defs>
</svg>
